<svg width="30" height="29" viewBox="0 0 30 29" fill="none" xmlns="http://www.w3.org/2000/svg">
<path d="M24.8476 17.3386C24.8735 17.2788 24.8875 17.2157 24.9068 17.1539C24.9248 17.0954 24.9481 17.0394 24.9607 16.979C24.986 16.8561 24.9993 16.7313 24.9993 16.6064C24.9993 16.6045 25 16.6032 25 16.6019C25 16.4752 24.986 16.3484 24.9607 16.2236C24.9488 16.1664 24.9268 16.1136 24.9101 16.0583C24.8902 15.9933 24.8749 15.927 24.8476 15.864C24.819 15.7971 24.7797 15.7366 24.7438 15.6736C24.7171 15.6266 24.6958 15.5777 24.6646 15.5327C24.5907 15.4259 24.5068 15.3261 24.413 15.2354L19.3268 10.3188C18.5468 9.56473 17.2835 9.56473 16.5035 10.3188C15.7235 11.0721 15.7235 12.2946 16.5035 13.0479L18.1834 14.6718H13.1218C10.8449 14.6718 8.99334 12.882 8.99334 10.681V7.97174C8.99334 6.90567 8.0995 6.04163 6.99667 6.04163C5.89384 6.04163 5 6.90567 5 7.97174V10.681C5 15.0102 8.64393 18.5321 13.1218 18.5321H18.184L16.5035 20.1566C15.7235 20.9106 15.7235 22.1324 16.5035 22.8858C16.8935 23.2621 17.404 23.4506 17.9151 23.4506C18.4263 23.4506 18.9374 23.2621 19.3268 22.8851L24.413 17.9678C24.5068 17.8771 24.5913 17.7774 24.6652 17.6699C24.6945 17.6275 24.7138 17.5818 24.7398 17.538C24.777 17.4724 24.8176 17.4087 24.8476 17.3386Z" fill="#FCC26B"/>
</svg>
