<svg width="29" height="29" viewBox="0 0 29 29" fill="none" xmlns="http://www.w3.org/2000/svg">
<path d="M24.0193 17.3387C24.0444 17.2789 24.0579 17.2158 24.0766 17.1541C24.094 17.0955 24.1165 17.0396 24.1287 16.9791C24.1532 16.8562 24.166 16.7314 24.166 16.6066C24.166 16.6046 24.1667 16.6033 24.1667 16.6021C24.1667 16.4753 24.1532 16.3486 24.1287 16.2238C24.1171 16.1665 24.0959 16.1137 24.0798 16.0584C24.0605 15.9934 24.0457 15.9272 24.0193 15.8641C23.9917 15.7972 23.9537 15.7367 23.919 15.6737C23.8932 15.6267 23.8727 15.5778 23.8424 15.5328C23.771 15.426 23.6899 15.3263 23.5992 15.2355L18.6826 10.3189C17.9285 9.56485 16.7074 9.56485 15.9534 10.3189C15.1994 11.0723 15.1994 12.2947 15.9534 13.0481L17.5773 14.6719H12.6844C10.4834 14.6719 8.69358 12.8821 8.69358 10.6811V7.97186C8.69358 6.9058 7.82953 6.04175 6.76346 6.04175C5.69739 6.04175 4.83334 6.9058 4.83334 7.97186V10.6811C4.83334 15.0104 8.35581 18.5322 12.6844 18.5322H17.5779L15.9534 20.1567C15.1994 20.9107 15.1994 22.1325 15.9534 22.8859C16.3304 23.2622 16.8239 23.4508 17.318 23.4508C17.8121 23.4508 18.3062 23.2622 18.6826 22.8852L23.5992 17.9679C23.6899 17.8772 23.7716 17.7775 23.8431 17.6701C23.8714 17.6276 23.89 17.5819 23.9151 17.5382C23.9511 17.4725 23.9904 17.4088 24.0193 17.3387Z" fill="black"/>
</svg>
