<svg width="30" height="30" viewBox="0 0 30 30" fill="none" xmlns="http://www.w3.org/2000/svg">
<g clip-path="url(#clip0_28_256)">
<mask id="path-1-inside-1_28_256" fill="white">
<path d="M14.9832 29.6026C12.907 29.6026 12.0712 28.429 11.3995 27.4856C10.8337 26.691 10.3869 26.0637 9.33345 26.0004C8.21615 25.9333 7.61518 26.4084 6.91872 26.9577C6.23279 27.4994 5.45499 28.1162 4.18555 28.0365C1.4458 27.7457 0.101611 25.8806 0.167141 22.4911L0.172739 22.2027L0.426956 22.0657C5.14249 19.5278 7.33857 15.0954 7.33857 8.11764C7.33857 3.84271 10.2143 0.364672 13.7497 0.364014H16.2167C19.7521 0.364343 22.6278 3.84238 22.6278 8.11731C22.6278 15.0954 24.8242 19.5274 29.5394 22.0653L29.7933 22.2023L29.7993 22.4908C29.8648 25.8802 28.5203 27.7454 25.8036 28.0345C24.5094 28.1132 23.7339 27.4991 23.0477 26.9574C22.3512 26.4078 21.7483 25.9339 20.6329 26.0001C19.5795 26.063 19.1327 26.6906 18.5673 27.4849C17.8955 28.4287 17.0594 29.6026 14.9832 29.6026ZM9.12632 25.0063C9.2126 25.0063 9.30118 25.0089 9.39207 25.0142C10.917 25.1051 11.601 26.065 12.2039 26.9123C12.8546 27.8257 13.4164 28.6147 14.9832 28.6147C16.5503 28.6147 17.1121 27.8257 17.7621 26.9123C18.3654 26.0656 19.0487 25.1057 20.5737 25.0145C22.0703 24.9259 22.913 25.5931 23.6595 26.1822C24.3118 26.6972 24.8285 27.1042 25.7216 27.0509C27.8054 26.8283 28.7992 25.4726 28.8137 22.7941C23.9213 20.0451 21.6399 15.3724 21.6399 8.11731C21.6399 4.3867 19.2064 1.35158 16.2151 1.35158H13.751C10.76 1.35158 8.32646 4.3867 8.32646 8.11731C8.32646 15.3717 6.04509 20.0451 1.15273 22.7937C1.16689 25.4722 2.16136 26.8283 4.26722 27.0525C5.13919 27.1036 5.65389 26.6972 6.30655 26.1819C7.00795 25.629 7.79728 25.0063 9.12632 25.0063Z"/>
</mask>
<path d="M11.3995 27.4856L9.11037 29.1153L9.11044 29.1154L11.3995 27.4856ZM9.33345 26.0004L9.16481 28.8054L9.1651 28.8054L9.33345 26.0004ZM6.91872 26.9577L5.17863 24.7513L5.17717 24.7525L6.91872 26.9577ZM4.18555 28.0365L3.88899 30.8308L3.94914 30.8372L4.0095 30.841L4.18555 28.0365ZM0.167141 22.4911L-2.64233 22.4366L-2.64233 22.4368L0.167141 22.4911ZM0.172739 22.2027L-1.16025 19.7289L-2.60489 20.5074L-2.63673 22.1481L0.172739 22.2027ZM0.426956 22.0657L-0.90476 19.5913L-0.90603 19.592L0.426956 22.0657ZM13.7497 0.364014V-2.44599H13.7491L13.7497 0.364014ZM16.2167 0.364014L16.217 -2.44599H16.2167V0.364014ZM29.5394 22.0653L30.8738 19.5923L30.8712 19.591L29.5394 22.0653ZM29.7933 22.2023L32.6027 22.1446L32.5691 20.5071L31.1276 19.7293L29.7933 22.2023ZM29.7993 22.4908L32.6087 22.4365L32.6087 22.4331L29.7993 22.4908ZM25.8036 28.0345L25.9741 30.8393L26.0377 30.8355L26.1009 30.8287L25.8036 28.0345ZM23.0477 26.9574L24.7887 24.7517L24.7884 24.7515L23.0477 26.9574ZM20.6329 26.0001L20.4665 23.195L20.4655 23.1951L20.6329 26.0001ZM18.5673 27.4849L16.278 25.8553L16.278 25.8554L18.5673 27.4849ZM9.39207 25.0142L9.55924 22.2092L9.55469 22.2089L9.39207 25.0142ZM12.2039 26.9123L9.91446 28.5415L9.91522 28.5426L12.2039 26.9123ZM17.7621 26.9123L15.4737 25.2816L15.4726 25.283L17.7621 26.9123ZM20.5737 25.0145L20.4076 22.2094L20.4059 22.2095L20.5737 25.0145ZM23.6595 26.1822L25.4007 23.9767L25.4003 23.9763L23.6595 26.1822ZM25.7216 27.0509L25.8891 29.8559L25.9547 29.852L26.0201 29.845L25.7216 27.0509ZM28.8137 22.7941L31.6236 22.8093L31.6326 21.1548L30.1902 20.3443L28.8137 22.7941ZM1.15273 22.7937L-0.223647 20.3439L-1.66598 21.1542L-1.65723 22.8086L1.15273 22.7937ZM4.26722 27.0525L3.96966 29.8467L4.03621 29.8538L4.10301 29.8577L4.26722 27.0525ZM6.30655 26.1819L4.567 23.9751L4.56517 23.9765L6.30655 26.1819ZM14.9832 26.7926C14.7334 26.7926 14.5897 26.7581 14.5167 26.7342C14.4463 26.7111 14.3947 26.6827 14.3428 26.644C14.1952 26.5341 14.0514 26.3654 13.6885 25.8557L9.11044 29.1154C9.41929 29.5492 10.0292 30.439 10.9865 31.1517C12.0346 31.9321 13.3539 32.4126 14.9832 32.4126V26.7926ZM13.6885 25.8558C13.457 25.5305 12.9973 24.8556 12.3575 24.3178C11.5918 23.6741 10.6448 23.2641 9.5018 23.1955L9.1651 28.8054C9.15634 28.8049 9.08054 28.798 8.97108 28.7539C8.86058 28.7093 8.78113 28.6533 8.74115 28.6197C8.71103 28.5944 8.72559 28.6001 8.7961 28.6879C8.83019 28.7303 8.87159 28.7845 8.92527 28.8577C8.98012 28.9325 9.03751 29.013 9.11037 29.1153L13.6885 25.8558ZM9.50209 23.1955C7.24207 23.0596 5.89803 24.1839 5.17863 24.7513L8.6588 29.1641C8.84512 29.0172 8.95159 28.9341 9.04883 28.8657C9.13623 28.8043 9.17149 28.7873 9.1739 28.7861C9.17414 28.786 9.16756 28.7891 9.15566 28.7931C9.14354 28.7972 9.13099 28.8004 9.11979 28.8026C9.09373 28.8077 9.10262 28.8016 9.16481 28.8054L9.50209 23.1955ZM5.17717 24.7525C4.99564 24.8958 4.88021 24.9862 4.76689 25.0657C4.66163 25.1395 4.59365 25.1781 4.54895 25.1997C4.50842 25.2193 4.48649 25.2251 4.47391 25.2278C4.46264 25.2301 4.42966 25.2363 4.3616 25.232L4.0095 30.841C6.44384 30.9938 7.98077 29.6996 8.66026 29.163L5.17717 24.7525ZM4.48211 25.2422C3.73299 25.1627 3.51114 24.9309 3.40083 24.7784C3.22383 24.5339 2.95021 23.9111 2.97662 22.5454L-2.64233 22.4368C-2.68146 24.4606 -2.31575 26.4651 -1.1521 28.0732C0.0782423 29.7734 1.89836 30.6195 3.88899 30.8308L4.48211 25.2422ZM2.97661 22.5456L2.98221 22.2572L-2.63673 22.1481L-2.64233 22.4366L2.97661 22.5456ZM1.50572 24.6764L1.75994 24.5394L-0.90603 19.592L-1.16025 19.7289L1.50572 24.6764ZM1.75867 24.5401C4.5952 23.0134 6.75508 20.8575 8.16893 18.0042C9.55893 15.1991 10.1486 11.8822 10.1486 8.11764H4.52857C4.52857 11.3309 4.02017 13.7191 3.13324 15.509C2.27017 17.2508 0.97424 18.58 -0.90476 19.5913L1.75867 24.5401ZM10.1486 8.11764C10.1486 4.87138 12.2424 3.17429 13.7502 3.17401L13.7491 -2.44599C8.18624 -2.44495 4.52857 2.81403 4.52857 8.11764H10.1486ZM13.7497 3.17401H16.2167V-2.44599H13.7497V3.17401ZM16.2165 3.17401C17.724 3.17415 19.8178 4.87095 19.8178 8.11731H25.4378C25.4378 2.81381 21.7802 -2.44547 16.217 -2.44599L16.2165 3.17401ZM19.8178 8.11731C19.8178 11.8821 20.4076 15.199 21.7976 18.0041C23.2115 20.8573 25.3714 23.0131 28.2077 24.5397L30.8712 19.591C28.9923 18.5797 27.6964 17.2505 26.8332 15.5087C25.9463 13.7189 25.4378 11.3307 25.4378 8.11731H19.8178ZM28.2051 24.5383L28.459 24.6753L31.1276 19.7293L30.8738 19.5923L28.2051 24.5383ZM26.9839 22.26L26.9898 22.5485L32.6087 22.4331L32.6027 22.1446L26.9839 22.26ZM26.9898 22.5451C27.0162 23.9103 26.7427 24.5359 26.5652 24.7822C26.4546 24.9356 26.2371 25.1625 25.5062 25.2403L26.1009 30.8287C28.0867 30.6174 29.8998 29.7672 31.1243 28.0683C32.2818 26.4624 32.6479 24.4607 32.6087 22.4365L26.9898 22.5451ZM25.633 25.2297C25.5523 25.2346 25.5104 25.2275 25.4934 25.224C25.4756 25.2203 25.4515 25.2134 25.4114 25.1942C25.2946 25.1383 25.163 25.0471 24.7887 24.7517L21.3066 29.163C22.0024 29.7123 23.5277 30.9881 25.9741 30.8393L25.633 25.2297ZM24.7884 24.7515C24.0645 24.1802 22.7211 23.0612 20.4665 23.195L20.7994 28.8052C20.8614 28.8015 20.8707 28.8075 20.8453 28.8026C20.8345 28.8005 20.8223 28.7973 20.8106 28.7933C20.799 28.7895 20.7928 28.7865 20.7933 28.7868C20.7962 28.7881 20.8317 28.8053 20.9188 28.8665C21.0154 28.9343 21.122 29.0173 21.307 29.1633L24.7884 24.7515ZM20.4655 23.1951C19.3219 23.2634 18.3746 23.6736 17.6088 24.3174C16.969 24.8553 16.5094 25.5304 16.278 25.8553L20.8565 29.1145C20.9293 29.0122 20.9867 28.9317 21.0415 28.8569C21.0952 28.7837 21.1365 28.7295 21.1706 28.6871C21.2411 28.5994 21.2556 28.5937 21.2254 28.6191C21.1854 28.6527 21.1058 28.7089 20.9951 28.7535C20.8854 28.7976 20.8094 28.8046 20.8004 28.8051L20.4655 23.1951ZM16.278 25.8554C15.9152 26.365 15.7712 26.534 15.6236 26.6439C15.5716 26.6826 15.52 26.7111 15.4496 26.7342C15.3766 26.7581 15.2329 26.7926 14.9832 26.7926V32.4126C16.6126 32.4126 17.9321 31.932 18.9802 31.1514C19.9376 30.4385 20.5475 29.5486 20.8566 29.1144L16.278 25.8554ZM9.12632 27.8163C9.15552 27.8163 9.18979 27.8172 9.22944 27.8195L9.55469 22.2089C9.41256 22.2007 9.26968 22.1963 9.12632 22.1963V27.8163ZM9.22489 27.8192C9.27446 27.8222 9.30506 27.8277 9.32035 27.831C9.32827 27.8328 9.33338 27.8343 9.33611 27.8351C9.33884 27.8359 9.34002 27.8364 9.34002 27.8364C9.34003 27.8364 9.33969 27.8363 9.33928 27.8361C9.33888 27.8359 9.33913 27.836 9.34022 27.8366C9.34209 27.8378 9.35018 27.8428 9.3652 27.8551C9.3977 27.8817 9.45715 27.9374 9.55217 28.0533C9.65409 28.1775 9.75568 28.3184 9.91446 28.5415L14.4934 25.283C13.908 24.4603 12.534 22.3865 9.55924 22.2092L9.22489 27.8192ZM9.91522 28.5426C10.1897 28.9279 10.7378 29.7379 11.5702 30.3587C12.5294 31.0739 13.6686 31.4247 14.9832 31.4247V25.8047C14.8288 25.8047 14.7872 25.7856 14.8155 25.7944C14.8518 25.8057 14.8975 25.8293 14.9298 25.8534C14.9516 25.8697 14.929 25.8583 14.8513 25.7649C14.7627 25.6587 14.6675 25.5275 14.4926 25.2819L9.91522 28.5426ZM14.9832 31.4247C16.2977 31.4247 17.4372 31.0741 18.3965 30.3586C19.2293 29.7375 19.7771 28.9272 20.0516 28.5415L15.4726 25.283C15.2981 25.5284 15.203 25.6595 15.1147 25.7655C15.0371 25.8587 15.0147 25.8699 15.0367 25.8535C15.0691 25.8293 15.1149 25.8057 15.1512 25.7944C15.1795 25.7856 15.1377 25.8047 14.9832 25.8047V31.4247ZM20.0506 28.5429C20.2099 28.3194 20.3115 28.1785 20.4137 28.054C20.5089 27.938 20.5684 27.8821 20.601 27.8555C20.6161 27.8432 20.6242 27.8381 20.6261 27.837C20.6271 27.8363 20.6274 27.8362 20.627 27.8364C20.6266 27.8366 20.6263 27.8368 20.6263 27.8368C20.6263 27.8368 20.6275 27.8363 20.6302 27.8354C20.6329 27.8346 20.638 27.8331 20.6459 27.8314C20.6613 27.828 20.6919 27.8225 20.7414 27.8195L20.4059 22.2095C17.4315 22.3874 16.058 24.4615 15.4737 25.2816L20.0506 28.5429ZM20.7397 27.8196C21.0008 27.8042 21.1214 27.8494 21.2088 27.8902C21.361 27.9613 21.5166 28.0707 21.9188 28.3881L25.4003 23.9763C24.6012 23.3457 23.0283 22.0543 20.4076 22.2094L20.7397 27.8196ZM21.9183 28.3877C22.5266 28.868 23.8157 29.9797 25.8891 29.8559L25.554 24.2459C25.5647 24.2453 25.6164 24.2442 25.6921 24.2601C25.7677 24.276 25.8228 24.2994 25.8463 24.311C25.8623 24.319 25.8407 24.3103 25.7612 24.2537C25.7222 24.226 25.6749 24.1907 25.6135 24.1434C25.5508 24.0951 25.4846 24.0429 25.4007 23.9767L21.9183 28.3877ZM26.0201 29.845C27.6547 29.6704 29.2326 28.9847 30.3154 27.4973C31.3184 26.1195 31.6149 24.4296 31.6236 22.8093L26.0037 22.7789C25.998 23.837 25.7903 24.1642 25.7718 24.1896C25.7693 24.1932 25.7731 24.1875 25.7828 24.1792C25.7924 24.171 25.7968 24.1695 25.7889 24.1736C25.7724 24.1821 25.671 24.2303 25.4231 24.2568L26.0201 29.845ZM30.1902 20.3443C28.2098 19.2316 26.8329 17.7865 25.9169 15.9118C24.9791 13.9926 24.4499 11.4675 24.4499 8.11731H18.8299C18.8299 12.0222 19.4415 15.461 20.8675 18.3792C22.3152 21.3418 24.5252 23.6076 27.4372 25.2438L30.1902 20.3443ZM24.4499 8.11731C24.4499 3.44591 21.3059 -1.45842 16.2151 -1.45842V4.16158C17.1069 4.16158 18.8299 5.3275 18.8299 8.11731H24.4499ZM16.2151 -1.45842H13.751V4.16158H16.2151V-1.45842ZM13.751 -1.45842C8.66036 -1.45842 5.51646 3.44603 5.51646 8.11731H11.1365C11.1365 5.32738 12.8596 4.16158 13.751 4.16158V-1.45842ZM5.51646 8.11731C5.51646 11.4671 4.98733 13.9923 4.04952 15.9115C3.13343 17.7863 1.75655 19.2314 -0.223647 20.3439L2.5291 25.2436C5.44127 23.6075 7.65125 21.3416 9.09894 18.3789C10.5249 15.4606 11.1365 12.0219 11.1365 8.11731H5.51646ZM-1.65723 22.8086C-1.64867 24.4289 -1.35221 26.1226 -0.342064 27.503C0.747238 28.9915 2.33216 29.6724 3.96966 29.8467L4.56477 24.2583C4.30822 24.231 4.2007 24.1813 4.1801 24.1707C4.1703 24.1656 4.17355 24.1662 4.18264 24.1739C4.19184 24.1818 4.1956 24.1872 4.19324 24.184C4.17614 24.1607 3.96828 23.8371 3.96269 22.7789L-1.65723 22.8086ZM4.10301 29.8577C6.16238 29.9783 7.45609 28.8546 8.04793 28.3873L4.56517 23.9765C4.48118 24.0428 4.4146 24.0954 4.35137 24.1441C4.2895 24.1918 4.24151 24.2276 4.20178 24.256C4.12056 24.314 4.09761 24.3237 4.11246 24.3163C4.13468 24.3052 4.1911 24.2805 4.27072 24.2634C4.3511 24.2461 4.41022 24.2461 4.43142 24.2473L4.10301 29.8577ZM8.04611 28.3887C8.42248 28.092 8.58017 27.9786 8.73425 27.9018C8.83334 27.8525 8.93649 27.8163 9.12632 27.8163V22.1963C6.7523 22.1963 5.29097 23.4044 4.567 23.9751L8.04611 28.3887Z" fill="#535353" mask="url(#path-1-inside-1_28_256)"/>
<mask id="path-3-inside-2_28_256" fill="white">
<path d="M12.8559 6.79879L13.5349 5.96599C13.7072 5.75459 13.6755 5.4434 13.4645 5.27085C13.2527 5.09863 12.9422 5.13024 12.7693 5.34132L12.2184 6.01704L11.6675 5.34132C11.4949 5.12991 11.1844 5.09797 10.9723 5.27085C10.7609 5.4434 10.7293 5.75459 10.9019 5.96599L11.5809 6.79879L10.9019 7.63158C10.7297 7.84299 10.7613 8.15417 10.9723 8.32672C11.0642 8.40147 11.1745 8.4377 11.2842 8.4377C11.4274 8.4377 11.5697 8.37579 11.6675 8.25592L12.2184 7.58021L12.7693 8.25592C12.8671 8.37546 13.009 8.4377 13.1526 8.4377C13.2623 8.4377 13.3726 8.40147 13.4645 8.32672C13.6759 8.15417 13.7075 7.84299 13.5349 7.63158L12.8559 6.79879Z"/>
</mask>
<path d="M12.8559 6.79879L13.5349 5.96599C13.7072 5.75459 13.6755 5.4434 13.4645 5.27085C13.2527 5.09863 12.9422 5.13024 12.7693 5.34132L12.2184 6.01704L11.6675 5.34132C11.4949 5.12991 11.1844 5.09797 10.9723 5.27085C10.7609 5.4434 10.7293 5.75459 10.9019 5.96599L11.5809 6.79879L10.9019 7.63158C10.7297 7.84299 10.7613 8.15417 10.9723 8.32672C11.0642 8.40147 11.1745 8.4377 11.2842 8.4377C11.4274 8.4377 11.5697 8.37579 11.6675 8.25592L12.2184 7.58021L12.7693 8.25592C12.8671 8.37546 13.009 8.4377 13.1526 8.4377C13.2623 8.4377 13.3726 8.40147 13.4645 8.32672C13.6759 8.15417 13.7075 7.84299 13.5349 7.63158L12.8559 6.79879Z" fill="#535353"/>
<path d="M12.8559 6.79879L10.6781 5.0231L9.23028 6.79879L10.6781 8.57448L12.8559 6.79879ZM13.5349 5.96599L15.7128 7.74169L15.7135 7.74077L13.5349 5.96599ZM13.4645 5.27085L15.2429 3.09527L15.2376 3.0909L13.4645 5.27085ZM12.7693 5.34132L10.5954 3.56081L10.5914 3.56568L12.7693 5.34132ZM12.2184 6.01704L10.0405 7.79267L12.2184 10.4639L14.3963 7.79267L12.2184 6.01704ZM11.6675 5.34132L13.8454 3.56568L13.8444 3.56451L11.6675 5.34132ZM10.9723 5.27085L9.19682 3.09287L9.19553 3.09392L10.9723 5.27085ZM10.9019 5.96599L13.0797 4.1903L13.0788 4.18918L10.9019 5.96599ZM11.5809 6.79879L13.7587 8.57448L15.2065 6.79879L13.7587 5.0231L11.5809 6.79879ZM10.9019 7.63158L8.72403 5.85589L8.72328 5.8568L10.9019 7.63158ZM10.9723 8.32672L9.19387 10.5023L9.19891 10.5064L10.9723 8.32672ZM11.6675 8.25592L13.8447 10.0324L13.8454 10.0316L11.6675 8.25592ZM12.2184 7.58021L14.3963 5.80457L12.2184 3.1333L10.0405 5.80457L12.2184 7.58021ZM12.7693 8.25592L10.5914 10.0316L10.5945 10.0353L12.7693 8.25592ZM13.4645 8.32672L15.2379 10.5064L15.2413 10.5037L13.4645 8.32672ZM13.5349 7.63158L11.3571 9.40727L11.358 9.40839L13.5349 7.63158ZM15.0338 8.57448L15.7128 7.74169L11.3571 4.1903L10.6781 5.0231L15.0338 8.57448ZM15.7135 7.74077C16.8653 6.32698 16.6535 4.24836 15.2429 3.09527L11.686 7.44642C10.6976 6.63844 10.5491 5.18219 11.3563 4.19122L15.7135 7.74077ZM15.2376 3.0909C13.8235 1.94075 11.7483 2.15324 10.5954 3.56081L14.9432 7.12182C14.1361 8.10724 12.6819 8.2565 11.6913 7.4508L15.2376 3.0909ZM10.5914 3.56568L10.0405 4.2414L14.3963 7.79267L14.9472 7.11696L10.5914 3.56568ZM14.3963 4.2414L13.8454 3.56568L9.4896 7.11696L10.0405 7.79267L14.3963 4.2414ZM13.8444 3.56451C12.6921 2.15268 10.6126 1.93869 9.19682 3.09287L12.7479 7.44883C11.7562 8.25725 10.2978 8.10714 9.49056 7.11813L13.8444 3.56451ZM9.19553 3.09392C7.78281 4.24698 7.57029 6.32814 8.72494 7.74281L13.0788 4.18918C13.8884 5.18103 13.7391 6.63982 12.7492 7.44778L9.19553 3.09392ZM8.72403 7.74169L9.40304 8.57448L13.7587 5.0231L13.0797 4.1903L8.72403 7.74169ZM9.40304 5.0231L8.72403 5.85589L13.0797 9.40727L13.7587 8.57448L9.40304 5.0231ZM8.72328 5.8568C7.57155 7.27059 7.78332 9.34921 9.19387 10.5023L12.7508 6.15115C13.7392 6.95913 13.8878 8.41538 13.0805 9.40635L8.72328 5.8568ZM9.19891 10.5064C9.81025 11.0038 10.5526 11.2477 11.2842 11.2477V5.6277C11.7965 5.6277 12.3182 5.79914 12.7458 6.14704L9.19891 10.5064ZM11.2842 11.2477C12.2337 11.2477 13.1897 10.8351 13.8447 10.0324L9.49027 6.47946C9.94964 5.91646 10.6212 5.6277 11.2842 5.6277V11.2477ZM13.8454 10.0316L14.3963 9.35585L10.0405 5.80457L9.4896 6.48029L13.8454 10.0316ZM10.0405 9.35585L10.5914 10.0316L14.9472 6.48029L14.3963 5.80457L10.0405 9.35585ZM10.5945 10.0353C11.2459 10.8314 12.1981 11.2477 13.1526 11.2477V5.6277C13.82 5.6277 14.4884 5.91949 14.9441 6.47653L10.5945 10.0353ZM13.1526 11.2477C13.8842 11.2477 14.6266 11.0038 15.2379 10.5064L11.691 6.14704C12.1186 5.79914 12.6403 5.6277 13.1526 5.6277V11.2477ZM15.2413 10.5037C16.654 9.35059 16.8665 7.26944 15.7119 5.85477L11.358 9.40839C10.5485 8.41654 10.6977 6.95775 11.6877 6.14979L15.2413 10.5037ZM15.7128 5.85589L15.0338 5.0231L10.6781 8.57448L11.3571 9.40727L15.7128 5.85589Z" fill="#535353" mask="url(#path-3-inside-2_28_256)"/>
<mask id="path-5-inside-3_28_256" fill="white">
<path d="M18.4536 6.79881L19.133 5.96602C19.3052 5.75461 19.2739 5.44343 19.0625 5.27121C18.8508 5.09865 18.5396 5.1306 18.3677 5.342L17.8168 6.01772L17.2659 5.342C17.0936 5.1306 16.7821 5.09832 16.5711 5.27121C16.3596 5.44343 16.3284 5.75494 16.5006 5.96602L17.1799 6.79881L16.5006 7.6316C16.3284 7.84301 16.3596 8.1542 16.5711 8.32642C16.6626 8.40117 16.7732 8.43739 16.8829 8.43739C17.0265 8.43739 17.1684 8.37549 17.2659 8.25562L17.8168 7.57991L18.3677 8.25562C18.4652 8.37549 18.6074 8.43739 18.7507 8.43739C18.8603 8.43739 18.971 8.40117 19.0625 8.32642C19.2739 8.1542 19.3052 7.84268 19.133 7.6316L18.4536 6.79881Z"/>
</mask>
<path d="M18.4536 6.79881L19.133 5.96602C19.3052 5.75461 19.2739 5.44343 19.0625 5.27121C18.8508 5.09865 18.5396 5.1306 18.3677 5.342L17.8168 6.01772L17.2659 5.342C17.0936 5.1306 16.7821 5.09832 16.5711 5.27121C16.3596 5.44343 16.3284 5.75494 16.5006 5.96602L17.1799 6.79881L16.5006 7.6316C16.3284 7.84301 16.3596 8.1542 16.5711 8.32642C16.6626 8.40117 16.7732 8.43739 16.8829 8.43739C17.0265 8.43739 17.1684 8.37549 17.2659 8.25562L17.8168 7.57991L18.3677 8.25562C18.4652 8.37549 18.6074 8.43739 18.7507 8.43739C18.8603 8.43739 18.971 8.40117 19.0625 8.32642C19.2739 8.1542 19.3052 7.84268 19.133 7.6316L18.4536 6.79881Z" fill="#535353"/>
<path d="M18.4536 6.79881L16.2762 5.0226L14.8273 6.79881L16.2762 8.57502L18.4536 6.79881ZM19.133 5.96602L21.3104 7.74223L21.3116 7.7408L19.133 5.96602ZM19.0625 5.27121L17.2874 7.44949L17.2877 7.4498L19.0625 5.27121ZM18.3677 5.342L20.5456 7.11764L20.548 7.11474L18.3677 5.342ZM17.8168 6.01772L15.6389 7.79336L17.8168 10.4646L19.9947 7.79336L17.8168 6.01772ZM17.2659 5.342L15.0873 7.11678L15.088 7.11764L17.2659 5.342ZM16.5711 5.27121L18.3458 7.44981L18.3516 7.44512L16.5711 5.27121ZM16.5006 5.96602L18.678 4.18981L18.6778 4.18958L16.5006 5.96602ZM17.1799 6.79881L19.3574 8.57502L20.8063 6.79881L19.3574 5.0226L17.1799 6.79881ZM16.5006 7.6316L14.3232 5.8554L14.322 5.85683L16.5006 7.6316ZM16.5711 8.32642L18.3483 6.14986L18.3458 6.14783L16.5711 8.32642ZM17.2659 8.25562L15.088 6.47998L15.0857 6.48275L17.2659 8.25562ZM17.8168 7.57991L19.9947 5.80427L17.8168 3.133L15.6389 5.80427L17.8168 7.57991ZM18.3677 8.25562L20.5478 6.48275L20.5456 6.47998L18.3677 8.25562ZM19.0625 8.32642L17.2877 6.14782L17.2852 6.14986L19.0625 8.32642ZM19.133 7.6316L16.9556 9.40781L16.9557 9.40804L19.133 7.6316ZM20.6311 8.57502L21.3104 7.74223L16.9556 4.18981L16.2762 5.0226L20.6311 8.57502ZM21.3116 7.7408C22.4607 6.33025 22.256 4.24832 20.8373 3.09261L17.2877 7.4498C16.2919 6.63853 16.1497 5.17898 16.9544 4.19125L21.3116 7.7408ZM20.8377 3.09292C19.4236 1.94055 17.3405 2.15115 16.1874 3.56927L20.548 7.11474C19.7387 8.11004 18.278 8.25676 17.2874 7.44949L20.8377 3.09292ZM16.1898 3.56636L15.6389 4.24208L19.9947 7.79336L20.5456 7.11764L16.1898 3.56636ZM19.9947 4.24208L19.4438 3.56636L15.088 7.11764L15.6389 7.79336L19.9947 4.24208ZM19.4445 3.56723C18.2956 2.15692 16.211 1.93389 14.7905 3.09729L18.3516 7.44512C17.3533 8.26275 15.8917 8.10427 15.0873 7.11678L19.4445 3.56723ZM14.7963 3.09261C13.3784 4.24769 13.1717 6.33092 14.3233 7.74246L18.6778 4.18958C19.4851 5.17897 19.3409 6.63916 18.3458 7.4498L14.7963 3.09261ZM14.3232 7.74223L15.0025 8.57502L19.3574 5.0226L18.678 4.18981L14.3232 7.74223ZM15.0025 5.0226L14.3232 5.8554L18.678 9.40781L19.3574 8.57502L15.0025 5.0226ZM14.322 5.85683C13.1729 7.26737 13.3776 9.34929 14.7963 10.505L18.3458 6.14783C19.3417 6.9591 19.4838 8.41866 18.6792 9.40638L14.322 5.85683ZM14.7938 10.503C15.4088 11.0052 16.1541 11.2474 16.8829 11.2474V5.62739C17.3923 5.62739 17.9164 5.79719 18.3483 6.14986L14.7938 10.503ZM16.8829 11.2474C17.8329 11.2474 18.7906 10.8345 19.446 10.0285L15.0857 6.48275C15.5462 5.91647 16.2201 5.62739 16.8829 5.62739V11.2474ZM19.4438 10.0313L19.9947 9.35554L15.6389 5.80427L15.088 6.47998L19.4438 10.0313ZM15.6389 9.35554L16.1898 10.0313L20.5456 6.47998L19.9947 5.80427L15.6389 9.35554ZM16.1876 10.0285C16.8436 10.8353 17.8021 11.2474 18.7507 11.2474V5.62739C19.4128 5.62739 20.0867 5.91571 20.5478 6.48275L16.1876 10.0285ZM18.7507 11.2474C19.4794 11.2474 20.2248 11.0051 20.8398 10.503L17.2852 6.14986C17.7171 5.7972 18.2412 5.62739 18.7507 5.62739V11.2474ZM20.8373 10.505C22.2552 9.34994 22.4619 7.26672 21.3102 5.85517L16.9557 9.40804C16.1485 8.41865 16.2927 6.95846 17.2877 6.14783L20.8373 10.505ZM21.3104 5.8554L20.6311 5.0226L16.2762 8.57502L16.9556 9.40781L21.3104 5.8554Z" fill="#535353" mask="url(#path-5-inside-3_28_256)"/>
<path d="M18.6832 10.4503H11.2832C11.0102 10.4503 10.7893 10.6713 10.7893 10.9443C10.7893 11.2172 11.0102 11.4382 11.2832 11.4382H13.4181V12.4241C13.4181 13.6382 14.4059 14.6261 15.6197 14.6261C16.8335 14.6261 17.8217 13.6382 17.8217 12.4241V11.4382H18.6832C18.9558 11.4382 19.1771 11.2172 19.1771 10.9443C19.1771 10.6713 18.9558 10.4503 18.6832 10.4503ZM16.8338 12.4241C16.8338 13.0936 16.2895 13.6382 15.6197 13.6382C14.9503 13.6382 14.4059 13.0936 14.4059 12.4241V11.4382H16.8338V12.4241Z" fill="#535353"/>
</g>
<defs>
<clipPath id="clip0_28_256">
<rect width="30" height="30" fill="white"/>
</clipPath>
</defs>
</svg>
