<svg width="80" height="91" viewBox="0 0 80 91" fill="none" xmlns="http://www.w3.org/2000/svg">
<path d="M39.944 0.5C18.5638 0.5 1.17036 16.3281 1.17036 35.784V82.542C1.17036 86.8741 5.0429 90.3981 9.80343 90.3981C14.564 90.3981 18.4365 86.8741 18.4365 82.542V78.6813C18.4365 75.451 21.3244 72.823 24.8743 72.823C28.4241 72.823 31.312 75.451 31.312 78.6813V82.542C31.3109 86.8741 35.1845 90.3981 39.944 90.3981C44.7045 90.3981 48.577 86.8741 48.577 82.542V78.6813C48.577 75.451 51.465 72.823 55.0137 72.823C58.5635 72.823 61.4514 75.451 61.4514 78.6813V82.542C61.4514 86.8741 65.324 90.3981 70.0845 90.3981C74.8439 90.3981 78.7165 86.8741 78.7165 82.542V35.784C78.7176 16.3281 61.3241 0.5 39.944 0.5ZM76.5223 82.542C76.5223 85.7723 73.6343 88.4003 70.0856 88.4003C66.5358 88.4003 63.6479 85.7723 63.6479 82.542V78.6813C63.6479 74.3493 59.7753 70.8252 55.0148 70.8252C50.2554 70.8252 46.3828 74.3493 46.3828 78.6813V82.542C46.3817 85.7723 43.4938 88.4003 39.944 88.4003C36.3941 88.4003 33.5062 85.7723 33.5062 82.542V78.6813C33.5062 74.3493 29.6337 70.8252 24.8732 70.8252C20.1137 70.8252 16.2401 74.3493 16.2401 78.6813V82.542C16.2401 85.7723 13.3522 88.4003 9.80233 88.4003C6.25251 88.4003 3.36458 85.7723 3.36458 82.542V35.784C3.36568 17.4298 19.7745 2.49773 39.944 2.49773C60.1134 2.49773 76.5223 17.4298 76.5223 35.784V82.542Z" fill="#1B1B1B" stroke="#1B1B1B"/>
<path d="M24.5768 23.8965C17.0513 23.8965 10.9285 29.4682 10.9285 36.3164C10.9285 43.1646 17.0513 48.7363 24.5768 48.7363C32.1023 48.7363 38.225 43.1646 38.225 36.3164C38.225 29.4682 32.1023 23.8965 24.5768 23.8965ZM29.7544 43.2525C27.6524 43.2525 25.9434 41.6963 25.9434 39.7845C25.9434 37.8726 27.6535 36.3164 29.7544 36.3164C31.8553 36.3164 33.5655 37.8726 33.5655 39.7845C33.5655 41.6963 31.8553 43.2525 29.7544 43.2525ZM35.6686 38.8645C35.1856 36.2884 32.7214 34.3187 29.7544 34.3187C26.4417 34.3187 23.7481 36.7709 23.7481 39.7845C23.7481 42.798 26.4428 45.2503 29.7544 45.2503C30.0201 45.2503 30.2802 45.2293 30.5382 45.1983C28.7995 46.1682 26.7622 46.7386 24.5779 46.7386C18.2631 46.7386 13.1249 42.0629 13.1249 36.3164C13.1249 30.5699 18.2631 25.8942 24.5779 25.8942C30.8927 25.8942 36.0308 30.5699 36.0308 36.3164C36.0297 37.1964 35.8958 38.0474 35.6686 38.8645Z" fill="#1B1B1B" stroke="#1B1B1B"/>
<path d="M55.3112 23.8965C47.7867 23.8965 41.6629 29.4682 41.6629 36.3164C41.6629 43.1646 47.7867 48.7363 55.3112 48.7363C62.8356 48.7363 68.9594 43.1646 68.9594 36.3164C68.9594 29.4682 62.8356 23.8965 55.3112 23.8965ZM60.4888 43.2525C58.3879 43.2525 56.6777 41.6963 56.6777 39.7845C56.6777 37.8726 58.3879 36.3164 60.4888 36.3164C62.5897 36.3164 64.2999 37.8726 64.2999 39.7845C64.2999 41.6963 62.5897 43.2525 60.4888 43.2525ZM66.403 38.8655C65.92 36.2884 63.4558 34.3187 60.4888 34.3187C57.1761 34.3187 54.4824 36.7709 54.4824 39.7845C54.4824 42.798 57.1761 45.2503 60.4888 45.2503C60.7544 45.2503 61.0146 45.2293 61.2725 45.1983C59.5338 46.1682 57.4966 46.7386 55.3123 46.7386C48.9974 46.7386 43.8593 42.0629 43.8593 36.3164C43.8593 30.5699 48.9974 25.8942 55.3123 25.8942C61.6271 25.8942 66.7652 30.5699 66.7652 36.3164C66.7641 37.1974 66.6302 38.0474 66.403 38.8655Z" fill="#1B1B1B" stroke="#1B1B1B"/>
</svg>
