<svg width="30" height="30" viewBox="0 0 30 30" fill="none" xmlns="http://www.w3.org/2000/svg">
<mask id="path-1-inside-1_28_244" fill="white">
<path d="M14.9832 0.164795C8.56914 0.164795 3.3511 5.38283 3.3511 11.7969V27.2116C3.3511 28.6398 4.51286 29.8015 5.94102 29.8015C7.36918 29.8015 8.53094 28.6398 8.53094 27.2116V25.9389C8.53094 24.8739 9.39732 24.0075 10.4623 24.0075C11.5272 24.0075 12.3936 24.8739 12.3936 25.9389V27.2116C12.3933 28.6398 13.5554 29.8015 14.9832 29.8015C16.4113 29.8015 17.5731 28.6398 17.5731 27.2116V25.9389C17.5731 24.8739 18.4395 24.0075 19.5041 24.0075C20.569 24.0075 21.4354 24.8739 21.4354 25.9389V27.2116C21.4354 28.6398 22.5972 29.8015 24.0253 29.8015C25.4532 29.8015 26.6149 28.6398 26.6149 27.2116V11.7969C26.6153 5.38283 21.3972 0.164795 14.9832 0.164795ZM25.9567 27.2116C25.9567 28.2765 25.0903 29.1429 24.0257 29.1429C22.9607 29.1429 22.0944 28.2765 22.0944 27.2116V25.9389C22.0944 24.5107 20.9326 23.3489 19.5044 23.3489C18.0766 23.3489 16.9148 24.5107 16.9148 25.9389V27.2116C16.9145 28.2765 16.0481 29.1429 14.9832 29.1429C13.9182 29.1429 13.0519 28.2765 13.0519 27.2116V25.9389C13.0519 24.5107 11.8901 23.3489 10.4619 23.3489C9.03411 23.3489 7.87202 24.5107 7.87202 25.9389V27.2116C7.87202 28.2765 7.00564 29.1429 5.9407 29.1429C4.87575 29.1429 4.00937 28.2765 4.00937 27.2116V11.7969C4.0097 5.74605 8.93236 0.823389 14.9832 0.823389C21.034 0.823389 25.9567 5.74605 25.9567 11.7969V27.2116Z"/>
</mask>
<path d="M14.9832 0.164795C8.56914 0.164795 3.3511 5.38283 3.3511 11.7969V27.2116C3.3511 28.6398 4.51286 29.8015 5.94102 29.8015C7.36918 29.8015 8.53094 28.6398 8.53094 27.2116V25.9389C8.53094 24.8739 9.39732 24.0075 10.4623 24.0075C11.5272 24.0075 12.3936 24.8739 12.3936 25.9389V27.2116C12.3933 28.6398 13.5554 29.8015 14.9832 29.8015C16.4113 29.8015 17.5731 28.6398 17.5731 27.2116V25.9389C17.5731 24.8739 18.4395 24.0075 19.5041 24.0075C20.569 24.0075 21.4354 24.8739 21.4354 25.9389V27.2116C21.4354 28.6398 22.5972 29.8015 24.0253 29.8015C25.4532 29.8015 26.6149 28.6398 26.6149 27.2116V11.7969C26.6153 5.38283 21.3972 0.164795 14.9832 0.164795ZM25.9567 27.2116C25.9567 28.2765 25.0903 29.1429 24.0257 29.1429C22.9607 29.1429 22.0944 28.2765 22.0944 27.2116V25.9389C22.0944 24.5107 20.9326 23.3489 19.5044 23.3489C18.0766 23.3489 16.9148 24.5107 16.9148 25.9389V27.2116C16.9145 28.2765 16.0481 29.1429 14.9832 29.1429C13.9182 29.1429 13.0519 28.2765 13.0519 27.2116V25.9389C13.0519 24.5107 11.8901 23.3489 10.4619 23.3489C9.03411 23.3489 7.87202 24.5107 7.87202 25.9389V27.2116C7.87202 28.2765 7.00564 29.1429 5.9407 29.1429C4.87575 29.1429 4.00937 28.2765 4.00937 27.2116V11.7969C4.0097 5.74605 8.93236 0.823389 14.9832 0.823389C21.034 0.823389 25.9567 5.74605 25.9567 11.7969V27.2116Z" fill="#535353"/>
<path d="M12.3936 27.2116L15.2036 27.2122V27.2116H12.3936ZM26.6149 11.7969L23.8049 11.7967V11.7969H26.6149ZM16.9148 27.2116L19.7248 27.2125V27.2116H16.9148ZM4.00937 11.7969L1.19937 11.7967V11.7969H4.00937ZM14.9832 -2.64521C7.01722 -2.64521 0.541105 3.83091 0.541105 11.7969H6.1611C6.1611 6.93475 10.1211 2.97479 14.9832 2.97479V-2.64521ZM0.541105 11.7969V27.2116H6.1611V11.7969H0.541105ZM0.541105 27.2116C0.541105 30.1917 2.96094 32.6115 5.94102 32.6115V26.9915C6.06478 26.9915 6.1611 27.0878 6.1611 27.2116H0.541105ZM5.94102 32.6115C8.9211 32.6115 11.3409 30.1917 11.3409 27.2116H5.72094C5.72094 27.0878 5.81727 26.9915 5.94102 26.9915V32.6115ZM11.3409 27.2116V25.9389H5.72094V27.2116H11.3409ZM11.3409 25.9389C11.3409 26.4258 10.9492 26.8175 10.4623 26.8175V21.1975C7.84541 21.1975 5.72094 23.322 5.72094 25.9389H11.3409ZM10.4623 26.8175C9.9753 26.8175 9.5836 26.4258 9.5836 25.9389H15.2036C15.2036 23.322 13.0791 21.1975 10.4623 21.1975V26.8175ZM9.5836 25.9389V27.2116H15.2036V25.9389H9.5836ZM9.5836 27.2109C9.58291 30.1919 12.0038 32.6115 14.9832 32.6115V26.9915C15.1069 26.9915 15.2036 27.0876 15.2036 27.2122L9.5836 27.2109ZM14.9832 32.6115C17.9633 32.6115 20.3831 30.1917 20.3831 27.2116H14.7631C14.7631 27.0878 14.8594 26.9915 14.9832 26.9915V32.6115ZM20.3831 27.2116V25.9389H14.7631V27.2116H20.3831ZM20.3831 25.9389C20.3831 26.4255 19.9917 26.8175 19.5041 26.8175V21.1975C16.8873 21.1975 14.7631 23.3223 14.7631 25.9389H20.3831ZM19.5041 26.8175C19.0171 26.8175 18.6254 26.4258 18.6254 25.9389H24.2454C24.2454 23.322 22.121 21.1975 19.5041 21.1975V26.8175ZM18.6254 25.9389V27.2116H24.2454V25.9389H18.6254ZM18.6254 27.2116C18.6254 30.1917 21.0453 32.6115 24.0253 32.6115V26.9915C24.1491 26.9915 24.2454 27.0878 24.2454 27.2116H18.6254ZM24.0253 32.6115C27.0053 32.6115 29.4249 30.1914 29.4249 27.2116H23.8049C23.8049 27.0881 23.901 26.9915 24.0253 26.9915V32.6115ZM29.4249 27.2116V11.7969H23.8049V27.2116H29.4249ZM29.4249 11.797C29.4253 3.83092 22.9491 -2.64521 14.9832 -2.64521V2.97479C19.8453 2.97479 23.8052 6.93475 23.8049 11.7967L29.4249 11.797ZM23.1467 27.2116C23.1467 26.7249 23.5381 26.3329 24.0257 26.3329V31.9529C26.6425 31.9529 28.7667 29.8281 28.7667 27.2116H23.1467ZM24.0257 26.3329C24.5127 26.3329 24.9044 26.7246 24.9044 27.2116H19.2844C19.2844 29.8285 21.4088 31.9529 24.0257 31.9529V26.3329ZM24.9044 27.2116V25.9389H19.2844V27.2116H24.9044ZM24.9044 25.9389C24.9044 22.9588 22.4845 20.5389 19.5044 20.5389V26.1589C19.3807 26.1589 19.2844 26.0626 19.2844 25.9389H24.9044ZM19.5044 20.5389C16.5244 20.5389 14.1048 22.959 14.1048 25.9389H19.7248C19.7248 26.0624 19.6288 26.1589 19.5044 26.1589V20.5389ZM14.1048 25.9389V27.2116H19.7248V25.9389H14.1048ZM14.1048 27.2107C14.105 26.7246 14.496 26.3329 14.9832 26.3329V31.9529C17.6002 31.9529 19.724 29.8285 19.7248 27.2125L14.1048 27.2107ZM14.9832 26.3329C15.4702 26.3329 15.8619 26.7246 15.8619 27.2116H10.2419C10.2419 29.8285 12.3663 31.9529 14.9832 31.9529V26.3329ZM15.8619 27.2116V25.9389H10.2419V27.2116H15.8619ZM15.8619 25.9389C15.8619 22.9588 13.442 20.5389 10.4619 20.5389V26.1589C10.3382 26.1589 10.2419 26.0626 10.2419 25.9389H15.8619ZM10.4619 20.5389C7.48242 20.5389 5.06202 22.9585 5.06202 25.9389H10.682C10.682 26.0629 10.5858 26.1589 10.4619 26.1589V20.5389ZM5.06202 25.9389V27.2116H10.682V25.9389H5.06202ZM5.06202 27.2116C5.06202 26.7246 5.45372 26.3329 5.9407 26.3329V31.9529C8.55756 31.9529 10.682 29.8285 10.682 27.2116H5.06202ZM5.9407 26.3329C6.42767 26.3329 6.81937 26.7246 6.81937 27.2116H1.19937C1.19937 29.8285 3.32383 31.9529 5.9407 31.9529V26.3329ZM6.81937 27.2116V11.7969H1.19937V27.2116H6.81937ZM6.81937 11.797C6.81961 7.29797 10.4843 3.63339 14.9832 3.63339V-1.98661C7.38041 -1.98661 1.19978 4.19412 1.19937 11.7967L6.81937 11.797ZM14.9832 3.63339C19.4821 3.63339 23.1467 7.29797 23.1467 11.7969H28.7667C28.7667 4.19413 22.5859 -1.98661 14.9832 -1.98661V3.63339ZM23.1467 11.7969V27.2116H28.7667V11.7969H23.1467Z" fill="#535353" mask="url(#path-1-inside-1_28_244)"/>
<mask id="path-3-inside-2_28_244" fill="white">
<path d="M10.373 7.87793C8.11538 7.87793 6.27856 9.71475 6.27856 11.9724C6.27856 14.2301 8.11538 16.0669 10.373 16.0669C12.6307 16.0669 14.4675 14.2301 14.4675 11.9724C14.4675 9.71475 12.6307 7.87793 10.373 7.87793ZM11.9263 14.259C11.2957 14.259 10.783 13.746 10.783 13.1157C10.783 12.4855 11.2961 11.9724 11.9263 11.9724C12.5566 11.9724 13.0697 12.4855 13.0697 13.1157C13.0697 13.746 12.5566 14.259 11.9263 14.259ZM13.7006 12.8124C13.5557 11.9632 12.8164 11.3138 11.9263 11.3138C10.9325 11.3138 10.1244 12.1222 10.1244 13.1157C10.1244 14.1092 10.9328 14.9176 11.9263 14.9176C12.006 14.9176 12.0841 14.9107 12.1615 14.9005C11.6398 15.2203 11.0287 15.4083 10.3734 15.4083C8.47893 15.4083 6.93749 13.8669 6.93749 11.9724C6.93749 10.078 8.47893 8.53652 10.3734 8.53652C12.2678 8.53652 13.8093 10.078 13.8093 11.9724C13.8089 12.2625 13.7688 12.5431 13.7006 12.8124Z"/>
</mask>
<path d="M10.373 7.87793C8.11538 7.87793 6.27856 9.71475 6.27856 11.9724C6.27856 14.2301 8.11538 16.0669 10.373 16.0669C12.6307 16.0669 14.4675 14.2301 14.4675 11.9724C14.4675 9.71475 12.6307 7.87793 10.373 7.87793ZM11.9263 14.259C11.2957 14.259 10.783 13.746 10.783 13.1157C10.783 12.4855 11.2961 11.9724 11.9263 11.9724C12.5566 11.9724 13.0697 12.4855 13.0697 13.1157C13.0697 13.746 12.5566 14.259 11.9263 14.259ZM13.7006 12.8124C13.5557 11.9632 12.8164 11.3138 11.9263 11.3138C10.9325 11.3138 10.1244 12.1222 10.1244 13.1157C10.1244 14.1092 10.9328 14.9176 11.9263 14.9176C12.006 14.9176 12.0841 14.9107 12.1615 14.9005C11.6398 15.2203 11.0287 15.4083 10.3734 15.4083C8.47893 15.4083 6.93749 13.8669 6.93749 11.9724C6.93749 10.078 8.47893 8.53652 10.3734 8.53652C12.2678 8.53652 13.8093 10.078 13.8093 11.9724C13.8089 12.2625 13.7688 12.5431 13.7006 12.8124Z" fill="#535353"/>
<path d="M13.7006 12.8124L10.9306 13.285L16.4247 13.5018L13.7006 12.8124ZM12.1615 14.9005L13.63 17.2962L11.794 12.1146L12.1615 14.9005ZM13.8093 11.9724L16.6193 11.9756V11.9724H13.8093ZM10.373 5.06793C6.56346 5.06793 3.46856 8.16283 3.46856 11.9724H9.08856C9.08856 11.2667 9.6673 10.6879 10.373 10.6879V5.06793ZM3.46856 11.9724C3.46856 15.782 6.56346 18.8769 10.373 18.8769V13.2569C9.6673 13.2569 9.08856 12.6781 9.08856 11.9724H3.46856ZM10.373 18.8769C14.1826 18.8769 17.2775 15.782 17.2775 11.9724H11.6575C11.6575 12.6781 11.0788 13.2569 10.373 13.2569V18.8769ZM17.2775 11.9724C17.2775 8.16283 14.1826 5.06793 10.373 5.06793V10.6879C11.0788 10.6879 11.6575 11.2667 11.6575 11.9724H17.2775ZM11.9263 11.449C12.8482 11.449 13.593 12.1946 13.593 13.1157H7.97302C7.97302 15.2974 9.74328 17.069 11.9263 17.069V11.449ZM13.593 13.1157C13.593 14.0374 12.848 14.7824 11.9263 14.7824V9.16241C9.74414 9.16241 7.97302 10.9335 7.97302 13.1157H13.593ZM11.9263 14.7824C11.0047 14.7824 10.2597 14.0374 10.2597 13.1157H15.8797C15.8797 10.9335 14.1085 9.16241 11.9263 9.16241V14.7824ZM10.2597 13.1157C10.2597 12.1941 11.0047 11.449 11.9263 11.449V17.069C14.1085 17.069 15.8797 15.2979 15.8797 13.1157H10.2597ZM16.4706 12.3399C16.1005 10.1708 14.2165 8.50381 11.9263 8.50381V14.1238C11.4164 14.1238 11.0109 13.7556 10.9306 13.285L16.4706 12.3399ZM11.9263 8.50381C9.38026 8.50381 7.31442 10.5707 7.31442 13.1157H12.9344C12.9344 13.6738 12.4848 14.1238 11.9263 14.1238V8.50381ZM7.31442 13.1157C7.31442 15.6611 9.38092 17.7276 11.9263 17.7276V12.1076C12.4848 12.1076 12.9344 12.5573 12.9344 13.1157H7.31442ZM11.9263 17.7276C12.1669 17.7276 12.3742 17.7068 12.5289 17.6864L11.794 12.1146C11.7947 12.1146 11.8077 12.1128 11.8297 12.1111C11.852 12.1094 11.885 12.1076 11.9263 12.1076V17.7276ZM10.6929 12.5048C10.5887 12.5687 10.4822 12.5983 10.3734 12.5983V18.2183C11.5751 18.2183 12.691 17.8718 13.63 17.2962L10.6929 12.5048ZM10.3734 12.5983C10.0308 12.5983 9.74749 12.3149 9.74749 11.9724H4.12749C4.12749 15.4188 6.927 18.2183 10.3734 18.2183V12.5983ZM9.74749 11.9724C9.74749 11.6299 10.0308 11.3465 10.3734 11.3465V5.72652C6.92701 5.72652 4.12749 8.52604 4.12749 11.9724H9.74749ZM10.3734 11.3465C10.7159 11.3465 10.9993 11.6299 10.9993 11.9724H16.6193C16.6193 8.52604 13.8197 5.72652 10.3734 5.72652V11.3465ZM10.9993 11.9692C10.9992 12.0003 10.9951 12.0495 10.9765 12.1231L16.4247 13.5018C16.5424 13.0366 16.6186 12.5248 16.6193 11.9756L10.9993 11.9692Z" fill="#535353" mask="url(#path-3-inside-2_28_244)"/>
<mask id="path-5-inside-3_28_244" fill="white">
<path d="M19.5933 7.87793C17.336 7.87793 15.4989 9.71475 15.4989 11.9724C15.4989 14.2301 17.336 16.0669 19.5933 16.0669C21.8507 16.0669 23.6878 14.2301 23.6878 11.9724C23.6878 9.71475 21.8507 7.87793 19.5933 7.87793ZM21.1466 14.259C20.5164 14.259 20.0033 13.746 20.0033 13.1157C20.0033 12.4855 20.5164 11.9724 21.1466 11.9724C21.7769 11.9724 22.29 12.4855 22.29 13.1157C22.29 13.746 21.7769 14.259 21.1466 14.259ZM22.9209 12.8128C22.776 11.9632 22.0367 11.3138 21.1466 11.3138C20.1528 11.3138 19.3447 12.1222 19.3447 13.1157C19.3447 14.1092 20.1528 14.9176 21.1466 14.9176C21.2263 14.9176 21.3044 14.9107 21.3818 14.9005C20.8602 15.2203 20.249 15.4083 19.5937 15.4083C17.6992 15.4083 16.1578 13.8669 16.1578 11.9724C16.1578 10.078 17.6992 8.53652 19.5937 8.53652C21.4881 8.53652 23.0296 10.078 23.0296 11.9724C23.0292 12.2628 22.9891 12.5431 22.9209 12.8128Z"/>
</mask>
<path d="M19.5933 7.87793C17.336 7.87793 15.4989 9.71475 15.4989 11.9724C15.4989 14.2301 17.336 16.0669 19.5933 16.0669C21.8507 16.0669 23.6878 14.2301 23.6878 11.9724C23.6878 9.71475 21.8507 7.87793 19.5933 7.87793ZM21.1466 14.259C20.5164 14.259 20.0033 13.746 20.0033 13.1157C20.0033 12.4855 20.5164 11.9724 21.1466 11.9724C21.7769 11.9724 22.29 12.4855 22.29 13.1157C22.29 13.746 21.7769 14.259 21.1466 14.259ZM22.9209 12.8128C22.776 11.9632 22.0367 11.3138 21.1466 11.3138C20.1528 11.3138 19.3447 12.1222 19.3447 13.1157C19.3447 14.1092 20.1528 14.9176 21.1466 14.9176C21.2263 14.9176 21.3044 14.9107 21.3818 14.9005C20.8602 15.2203 20.249 15.4083 19.5937 15.4083C17.6992 15.4083 16.1578 13.8669 16.1578 11.9724C16.1578 10.078 17.6992 8.53652 19.5937 8.53652C21.4881 8.53652 23.0296 10.078 23.0296 11.9724C23.0292 12.2628 22.9891 12.5431 22.9209 12.8128Z" fill="#535353"/>
<path d="M22.9209 12.8128L20.1509 13.2852L25.6452 13.5013L22.9209 12.8128ZM21.3818 14.9005L22.8503 17.2962L21.0143 12.1146L21.3818 14.9005ZM23.0296 11.9724L25.8396 11.9756V11.9724H23.0296ZM19.5933 5.06793C15.7842 5.06793 12.6889 8.16268 12.6889 11.9724H18.3089C18.3089 11.2668 18.8878 10.6879 19.5933 10.6879V5.06793ZM12.6889 11.9724C12.6889 15.7821 15.7842 18.8769 19.5933 18.8769V13.2569C18.8878 13.2569 18.3089 12.678 18.3089 11.9724H12.6889ZM19.5933 18.8769C23.4025 18.8769 26.4978 15.7821 26.4978 11.9724H20.8778C20.8778 12.678 20.2989 13.2569 19.5933 13.2569V18.8769ZM26.4978 11.9724C26.4978 8.16268 23.4025 5.06793 19.5933 5.06793V10.6879C20.2989 10.6879 20.8778 11.2668 20.8778 11.9724H26.4978ZM21.1466 11.449C22.0683 11.449 22.8133 12.1941 22.8133 13.1157H17.1933C17.1933 15.2979 18.9644 17.069 21.1466 17.069V11.449ZM22.8133 13.1157C22.8133 14.0374 22.0683 14.7824 21.1466 14.7824V9.16241C18.9644 9.16241 17.1933 10.9335 17.1933 13.1157H22.8133ZM21.1466 14.7824C20.225 14.7824 19.48 14.0374 19.48 13.1157H25.1C25.1 10.9335 23.3288 9.16241 21.1466 9.16241V14.7824ZM19.48 13.1157C19.48 12.1941 20.225 11.449 21.1466 11.449V17.069C23.3288 17.069 25.1 15.2979 25.1 13.1157H19.48ZM25.6909 12.3404C25.3209 10.1711 23.437 8.50381 21.1466 8.50381V14.1238C20.6364 14.1238 20.2311 13.7553 20.1509 13.2852L25.6909 12.3404ZM21.1466 8.50381C18.6006 8.50381 16.5347 10.5707 16.5347 13.1157H22.1547C22.1547 13.6738 21.7051 14.1238 21.1466 14.1238V8.50381ZM16.5347 13.1157C16.5347 15.6608 18.6006 17.7276 21.1466 17.7276V12.1076C21.7051 12.1076 22.1547 12.5576 22.1547 13.1157H16.5347ZM21.1466 17.7276C21.3872 17.7276 21.5945 17.7068 21.7493 17.6864L21.0143 12.1146C21.015 12.1146 21.028 12.1128 21.05 12.1111C21.0723 12.1094 21.1053 12.1076 21.1466 12.1076V17.7276ZM19.9132 12.5048C19.809 12.5687 19.7026 12.5983 19.5937 12.5983V18.2183C20.7954 18.2183 21.9113 17.8718 22.8503 17.2962L19.9132 12.5048ZM19.5937 12.5983C19.2512 12.5983 18.9678 12.3149 18.9678 11.9724H13.3478C13.3478 15.4188 16.1473 18.2183 19.5937 18.2183V12.5983ZM18.9678 11.9724C18.9678 11.6299 19.2512 11.3465 19.5937 11.3465V5.72652C16.1473 5.72652 13.3478 8.52604 13.3478 11.9724H18.9678ZM19.5937 11.3465C19.9362 11.3465 20.2196 11.6299 20.2196 11.9724H25.8396C25.8396 8.52604 23.04 5.72652 19.5937 5.72652V11.3465ZM20.2196 11.9692C20.2195 12.0004 20.2154 12.0495 20.1966 12.1242L25.6452 13.5013C25.7627 13.0366 25.8389 12.5253 25.8396 11.9756L20.2196 11.9692Z" fill="#535353" mask="url(#path-5-inside-3_28_244)"/>
</svg>
