<svg width="30" height="30" viewBox="0 0 30 30" fill="none" xmlns="http://www.w3.org/2000/svg">
<mask id="path-1-inside-1_28_204" fill="white">
<path d="M29.6675 27.7589L25.281 24.5414C23.0625 22.914 21.7381 20.3004 21.7381 17.5491V16.8549L27.2093 13.4309C28.2167 12.8006 28.5232 11.4683 27.893 10.4606C27.2624 9.45299 25.9294 9.14707 24.9227 9.77734L21.7381 11.7706V9.77701C21.7381 5.27487 18.0756 1.61243 13.5735 1.61243C9.07134 1.61243 5.4089 5.2752 5.4089 9.77701V10.9951L3.46308 9.77734C2.45577 9.14674 1.12343 9.45364 0.493156 10.4606C-0.137118 11.468 0.169457 12.8003 1.17678 13.4309L5.40923 16.0798V17.5646C5.40923 23.514 10.2492 28.354 16.1986 28.354H29.4733C29.6158 28.354 29.7416 28.2624 29.7861 28.1274C29.8299 27.9917 29.7825 27.8432 29.6675 27.7589ZM1.52583 12.8727C0.826405 12.4348 0.61335 11.5098 1.05131 10.8103C1.33484 10.3569 1.82319 10.1083 2.32207 10.1083C2.59308 10.1083 2.86739 10.1817 3.11337 10.3358L5.40857 11.7722V15.3026L1.52583 12.8727ZM16.1983 27.6954C10.6121 27.6954 6.06782 23.1507 6.06782 17.5649V15.8977V11.5901V9.77701C6.06782 5.63808 9.43489 2.27102 13.5738 2.27102C17.7124 2.27102 21.0798 5.63808 21.0798 9.77701V12.1825L18.0236 14.0954C17.8692 14.1919 17.8227 14.3951 17.9192 14.5492C18.0154 14.7033 18.2185 14.7494 18.373 14.6536L25.2727 10.3352C25.9728 9.89787 26.8982 10.1106 27.3355 10.8097C27.7731 11.5094 27.5604 12.4344 26.8609 12.8721L19.9602 17.1908C19.8058 17.2873 19.7593 17.4905 19.8558 17.6446C19.8775 17.6795 19.9062 17.7068 19.9375 17.7302C19.9441 17.7351 19.95 17.7397 19.9569 17.744C19.9888 17.7648 20.0228 17.7809 20.0593 17.7895C20.0626 17.7901 20.0662 17.7901 20.0695 17.7908C20.0913 17.7951 20.1133 17.799 20.1354 17.799C20.1469 17.799 20.1584 17.7954 20.1703 17.7941C20.1805 17.7931 20.1904 17.7921 20.2003 17.7898C20.2375 17.7822 20.2737 17.7704 20.3079 17.7493C20.3086 17.749 20.3093 17.749 20.3099 17.7486L21.0798 17.2669V17.5484C21.0798 20.5085 22.5047 23.321 24.8917 25.0719L28.4676 27.6944H16.1983V27.6954Z"/>
</mask>
<path d="M29.6675 27.7589L25.281 24.5414C23.0625 22.914 21.7381 20.3004 21.7381 17.5491V16.8549L27.2093 13.4309C28.2167 12.8006 28.5232 11.4683 27.893 10.4606C27.2624 9.45299 25.9294 9.14707 24.9227 9.77734L21.7381 11.7706V9.77701C21.7381 5.27487 18.0756 1.61243 13.5735 1.61243C9.07134 1.61243 5.4089 5.2752 5.4089 9.77701V10.9951L3.46308 9.77734C2.45577 9.14674 1.12343 9.45364 0.493156 10.4606C-0.137118 11.468 0.169457 12.8003 1.17678 13.4309L5.40923 16.0798V17.5646C5.40923 23.514 10.2492 28.354 16.1986 28.354H29.4733C29.6158 28.354 29.7416 28.2624 29.7861 28.1274C29.8299 27.9917 29.7825 27.8432 29.6675 27.7589ZM1.52583 12.8727C0.826405 12.4348 0.61335 11.5098 1.05131 10.8103C1.33484 10.3569 1.82319 10.1083 2.32207 10.1083C2.59308 10.1083 2.86739 10.1817 3.11337 10.3358L5.40857 11.7722V15.3026L1.52583 12.8727ZM16.1983 27.6954C10.6121 27.6954 6.06782 23.1507 6.06782 17.5649V15.8977V11.5901V9.77701C6.06782 5.63808 9.43489 2.27102 13.5738 2.27102C17.7124 2.27102 21.0798 5.63808 21.0798 9.77701V12.1825L18.0236 14.0954C17.8692 14.1919 17.8227 14.3951 17.9192 14.5492C18.0154 14.7033 18.2185 14.7494 18.373 14.6536L25.2727 10.3352C25.9728 9.89787 26.8982 10.1106 27.3355 10.8097C27.7731 11.5094 27.5604 12.4344 26.8609 12.8721L19.9602 17.1908C19.8058 17.2873 19.7593 17.4905 19.8558 17.6446C19.8775 17.6795 19.9062 17.7068 19.9375 17.7302C19.9441 17.7351 19.95 17.7397 19.9569 17.744C19.9888 17.7648 20.0228 17.7809 20.0593 17.7895C20.0626 17.7901 20.0662 17.7901 20.0695 17.7908C20.0913 17.7951 20.1133 17.799 20.1354 17.799C20.1469 17.799 20.1584 17.7954 20.1703 17.7941C20.1805 17.7931 20.1904 17.7921 20.2003 17.7898C20.2375 17.7822 20.2737 17.7704 20.3079 17.7493C20.3086 17.749 20.3093 17.749 20.3099 17.7486L21.0798 17.2669V17.5484C21.0798 20.5085 22.5047 23.321 24.8917 25.0719L28.4676 27.6944H16.1983V27.6954Z" fill="#535353"/>
<path d="M29.6675 27.7589L32.0334 24.5336L32.0334 24.5336L29.6675 27.7589ZM25.281 24.5414L22.915 27.7666L22.9152 27.7667L25.281 24.5414ZM21.7381 16.8549L19.6161 13.4642L17.7381 14.6395V16.8549H21.7381ZM27.2093 13.4309L25.0877 10.04L25.0873 10.0401L27.2093 13.4309ZM27.893 10.4606L31.2842 8.33944L31.2837 8.33865L27.893 10.4606ZM24.9227 9.77734L27.0449 13.168L27.0454 13.1677L24.9227 9.77734ZM21.7381 11.7706H17.7381V18.993L23.8602 15.1612L21.7381 11.7706ZM5.4089 10.9951L3.28689 14.3858L9.4089 18.2171V10.9951H5.4089ZM3.46308 9.77734L1.3406 13.1678L1.34108 13.1681L3.46308 9.77734ZM0.493156 10.4606L-2.89747 8.33845L-2.89778 8.33894L0.493156 10.4606ZM1.17678 13.4309L-0.945709 16.8213L-0.945282 16.8216L1.17678 13.4309ZM5.40923 16.0798H9.40923V13.8644L7.53129 12.6891L5.40923 16.0798ZM29.7861 28.1274L33.5854 29.3784L33.5891 29.3673L33.5927 29.3562L29.7861 28.1274ZM1.52583 12.8727L-0.597033 16.2629L-0.596155 16.2635L1.52583 12.8727ZM1.05131 10.8103L4.44151 12.9332L4.44289 12.931L1.05131 10.8103ZM3.11337 10.3358L0.989706 13.7255L0.991364 13.7266L3.11337 10.3358ZM5.40857 11.7722H9.40857V9.55678L7.53058 8.38149L5.40857 11.7722ZM5.40857 15.3026L3.28658 18.6934L9.40857 22.5246V15.3026H5.40857ZM16.1983 27.6954V31.6954H20.1983V27.6954H16.1983ZM21.0798 12.1825L23.202 15.5731L25.0798 14.3978V12.1825H21.0798ZM18.0236 14.0954L20.143 17.4878L20.1458 17.486L18.0236 14.0954ZM17.9192 14.5492L21.3128 12.4318L21.3096 12.4266L17.9192 14.5492ZM18.373 14.6536L20.4819 18.0525L20.4885 18.0484L20.4951 18.0442L18.373 14.6536ZM25.2727 10.3352L23.1536 6.94264L23.1506 6.94452L25.2727 10.3352ZM27.3355 10.8097L30.7268 8.68869L30.7266 8.6884L27.3355 10.8097ZM26.8609 12.8721L24.7392 9.48116L24.7389 9.48135L26.8609 12.8721ZM19.9602 17.1908L22.0795 20.5832L22.0822 20.5815L19.9602 17.1908ZM19.8558 17.6446L23.2514 15.5303L23.2462 15.522L19.8558 17.6446ZM19.9375 17.7302L22.3375 14.5302L22.3321 14.5261L19.9375 17.7302ZM19.9569 17.744L22.1356 14.3895L22.0992 14.3658L22.0623 14.343L19.9569 17.744ZM20.0593 17.7895L19.1471 21.6841L19.2107 21.699L19.2749 21.7118L20.0593 17.7895ZM20.0695 17.7908L19.2851 21.7131L19.2965 21.7154L20.0695 17.7908ZM20.1703 17.7941L19.785 13.8127L19.7568 13.8154L19.7286 13.8185L20.1703 17.7941ZM20.2003 17.7898L19.4025 13.8702L19.3467 13.8815L19.2913 13.8944L20.2003 17.7898ZM20.3079 17.7493L18.5191 14.1716L18.3615 14.2503L18.2115 14.3427L20.3079 17.7493ZM20.3099 17.7486L22.0988 21.3263L22.2697 21.2409L22.4317 21.1395L20.3099 17.7486ZM21.0798 17.2669H25.0798V10.0453L18.958 13.876L21.0798 17.2669ZM24.8917 25.0719L22.526 28.2973L22.5262 28.2974L24.8917 25.0719ZM28.4676 27.6944V31.6944H40.6852L30.8332 24.4689L28.4676 27.6944ZM16.1983 27.6944V23.6944H12.1983V27.6944H16.1983ZM32.0334 24.5336L27.6468 21.316L22.9152 27.7667L27.3017 30.9843L32.0334 24.5336ZM27.6469 21.3161C26.4554 20.4421 25.7381 19.0261 25.7381 17.5491H17.7381C17.7381 21.5746 19.6696 25.3859 22.915 27.7666L27.6469 21.3161ZM25.7381 17.5491V16.8549H17.7381V17.5491H25.7381ZM23.8601 20.2457L29.3313 16.8216L25.0873 10.0401L19.6161 13.4642L23.8601 20.2457ZM29.331 16.8218C32.212 15.0192 33.0852 11.2187 31.2842 8.33944L24.5017 12.5818C23.9613 11.7178 24.2213 10.582 25.0877 10.04L29.331 16.8218ZM31.2837 8.33865C29.4804 5.45705 25.6783 4.5849 22.8 6.38703L27.0454 13.1677C26.1804 13.7092 25.0444 13.4489 24.5022 12.5826L31.2837 8.33865ZM22.8005 6.38671L19.6159 8.37994L23.8602 15.1612L27.0449 13.168L22.8005 6.38671ZM25.7381 11.7706V9.77701H17.7381V11.7706H25.7381ZM25.7381 9.77701C25.7381 3.06573 20.2848 -2.38757 13.5735 -2.38757V5.61243C15.8665 5.61243 17.7381 7.484 17.7381 9.77701H25.7381ZM13.5735 -2.38757C6.8621 -2.38757 1.4089 3.06616 1.4089 9.77701H9.4089C9.4089 7.48423 11.2806 5.61243 13.5735 5.61243V-2.38757ZM1.4089 9.77701V10.9951H9.4089V9.77701H1.4089ZM7.53091 7.60435L5.58509 6.38661L1.34108 13.1681L3.28689 14.3858L7.53091 7.60435ZM5.58557 6.38691C2.70495 4.58358 -1.0955 5.45945 -2.89747 8.33845L3.88378 12.5828C3.34236 13.4478 2.20658 13.7099 1.3406 13.1678L5.58557 6.38691ZM-2.89778 8.33894C-4.69971 11.2188 -3.82508 15.0188 -0.945709 16.8213L3.29926 10.0405C4.164 10.5818 4.42547 11.7171 3.88409 12.5823L-2.89778 8.33894ZM-0.945282 16.8216L3.28717 19.4705L7.53129 12.6891L3.29884 10.0402L-0.945282 16.8216ZM1.40923 16.0798V17.5646H9.40923V16.0798H1.40923ZM1.40923 17.5646C1.40923 25.7231 8.0401 32.354 16.1986 32.354V24.354C12.4584 24.354 9.40923 21.3048 9.40923 17.5646H1.40923ZM16.1986 32.354H29.4733V24.354H16.1986V32.354ZM29.4733 32.354C31.3501 32.354 33.0031 31.1471 33.5854 29.3784L25.9867 26.8764C26.4802 25.3777 27.8816 24.354 29.4733 24.354V32.354ZM33.5927 29.3562C34.1614 27.5943 33.5496 25.6458 32.0334 24.5336L27.3017 30.9843C26.0153 30.0407 25.4983 28.3891 25.9795 26.8986L33.5927 29.3562ZM3.6487 9.48253C4.81992 10.2159 5.17704 11.7586 4.44151 12.9332L-2.33888 8.68748C-3.95034 11.261 -3.16711 14.6536 -0.597033 16.2629L3.6487 9.48253ZM4.44289 12.931C3.96166 13.7006 3.13725 14.1083 2.32207 14.1083V6.10829C0.509127 6.10829 -1.29198 7.01317 -2.34026 8.68969L4.44289 12.931ZM2.32207 14.1083C1.86746 14.1083 1.40156 13.9836 0.989706 13.7255L5.23704 6.94613C4.33322 6.37988 3.31871 6.10829 2.32207 6.10829V14.1083ZM0.991364 13.7266L3.28656 15.163L7.53058 8.38149L5.23538 6.94509L0.991364 13.7266ZM1.40857 11.7722V15.3026H9.40857V11.7722H1.40857ZM7.53056 11.9119L3.64782 9.48198L-0.596155 16.2635L3.28658 18.6934L7.53056 11.9119ZM16.1983 23.6954C12.8213 23.6954 10.0678 20.9417 10.0678 17.5649H2.06782C2.06782 25.3598 8.4029 31.6954 16.1983 31.6954V23.6954ZM10.0678 17.5649V15.8977H2.06782V17.5649H10.0678ZM10.0678 15.8977V11.5901H2.06782V15.8977H10.0678ZM10.0678 11.5901V9.77701H2.06782V11.5901H10.0678ZM10.0678 9.77701C10.0678 7.84722 11.644 6.27102 13.5738 6.27102V-1.72898C7.22575 -1.72898 2.06782 3.42894 2.06782 9.77701H10.0678ZM13.5738 6.27102C15.5034 6.27102 17.0798 7.84733 17.0798 9.77701H25.0798C25.0798 3.42883 19.9214 -1.72898 13.5738 -1.72898V6.27102ZM17.0798 9.77701V12.1825H25.0798V9.77701H17.0798ZM18.9576 8.79191L15.9014 10.7048L20.1458 17.486L23.202 15.5731L18.9576 8.79191ZM15.9043 10.703C13.8696 11.9742 13.2627 14.6494 14.5289 16.6718L21.3096 12.4266C22.3828 14.1408 21.8688 16.4096 20.143 17.4878L15.9043 10.703ZM14.5256 16.6666C15.8035 18.7148 18.4769 19.2965 20.4819 18.0525L16.2641 11.2547C17.9602 10.2023 20.2272 10.6918 21.3128 12.4318L14.5256 16.6666ZM20.4951 18.0442L27.3949 13.7258L23.1506 6.94452L16.2509 11.2629L20.4951 18.0442ZM27.3919 13.7277C26.2234 14.4576 24.6807 14.1082 23.9443 12.931L30.7266 8.6884C29.1156 6.11297 25.7222 5.33817 23.1536 6.94264L27.3919 13.7277ZM23.9441 12.9307C23.2116 11.7595 23.5644 10.2163 24.7392 9.48116L28.9827 16.263C31.5564 14.6526 32.3346 11.2594 30.7268 8.68869L23.9441 12.9307ZM24.7389 9.48135L17.8382 13.8001L22.0822 20.5815L28.983 16.2628L24.7389 9.48135ZM17.8409 13.7984C15.8061 15.0696 15.1993 17.7448 16.4655 19.7672L23.2462 15.522C24.3194 17.2361 23.8054 19.505 22.0795 20.5832L17.8409 13.7984ZM16.4602 19.7588C16.8257 20.3458 17.2571 20.7207 17.5429 20.9342L22.3321 14.5261C22.5552 14.6929 22.9294 15.0132 23.2514 15.5303L16.4602 19.7588ZM17.5375 20.9302C17.5345 20.9279 17.5321 20.9262 17.533 20.9268C17.5331 20.9269 17.5342 20.9277 17.5353 20.9286C17.5366 20.9295 17.5385 20.9309 17.5407 20.9326C17.5489 20.9388 17.569 20.9538 17.5945 20.9724C17.6471 21.0106 17.7364 21.0739 17.8515 21.1451L22.0623 14.343C22.1705 14.4099 22.2534 14.4687 22.2997 14.5023C22.322 14.5186 22.3389 14.5313 22.3439 14.535C22.3464 14.5369 22.3485 14.5385 22.3468 14.5372C22.3461 14.5367 22.3422 14.5337 22.3375 14.5302L17.5375 20.9302ZM17.7782 21.0986C18.0957 21.3048 18.5553 21.5454 19.1471 21.6841L20.9716 13.8949C21.4902 14.0164 21.882 14.2247 22.1356 14.3895L17.7782 21.0986ZM19.2749 21.7118C19.3439 21.7256 19.405 21.7359 19.4558 21.7437C19.5065 21.7515 19.5499 21.7571 19.5831 21.7611C19.6161 21.7651 19.6428 21.7679 19.6589 21.7695C19.6672 21.7704 19.6739 21.771 19.6781 21.7714C19.6802 21.7716 19.6819 21.7718 19.683 21.7719C19.6835 21.7719 19.684 21.772 19.6843 21.772C19.6846 21.772 19.6848 21.7721 19.6849 21.7721C19.6856 21.7721 19.6827 21.7719 19.6793 21.7715C19.6756 21.7712 19.6693 21.7706 19.6615 21.7698C19.6462 21.7682 19.6204 21.7655 19.5883 21.7616C19.5559 21.7577 19.5134 21.7522 19.4635 21.7446C19.4136 21.7369 19.3533 21.7267 19.2851 21.7131L20.854 13.8685C20.785 13.8547 20.7238 13.8443 20.673 13.8365C20.6223 13.8288 20.5789 13.8231 20.5457 13.8191C20.5128 13.8152 20.4861 13.8124 20.4699 13.8107C20.4617 13.8099 20.4549 13.8092 20.4508 13.8088C20.4487 13.8086 20.4469 13.8085 20.4459 13.8084C20.4453 13.8083 20.4448 13.8083 20.4445 13.8082C20.4443 13.8082 20.444 13.8082 20.444 13.8082C20.4433 13.8081 20.4461 13.8084 20.4495 13.8087C20.4532 13.8091 20.4595 13.8097 20.4673 13.8105C20.4826 13.812 20.5085 13.8147 20.5406 13.8186C20.5729 13.8225 20.6155 13.828 20.6653 13.8357C20.7153 13.8433 20.7756 13.8535 20.8438 13.8671L19.2749 21.7118ZM19.2965 21.7154C19.3162 21.7193 19.6821 21.799 20.1354 21.799V13.799C20.3592 13.799 20.5393 13.8188 20.6513 13.8344C20.7584 13.8492 20.8397 13.8656 20.8426 13.8662L19.2965 21.7154ZM20.1354 21.799C20.3453 21.799 20.5192 21.7826 20.6393 21.7676C20.756 21.7531 20.8471 21.7364 20.8781 21.7307C20.8928 21.728 20.9088 21.725 20.9031 21.726C20.9026 21.7261 20.8984 21.7269 20.8928 21.728C20.887 21.7291 20.8781 21.7307 20.8672 21.7326C20.8278 21.7397 20.7336 21.7561 20.612 21.7696L19.7286 13.8185C19.601 13.8327 19.501 13.85 19.4557 13.8582C19.4326 13.8623 19.4139 13.8659 19.411 13.8664C19.4025 13.868 19.4155 13.8655 19.4274 13.8634C19.4525 13.8587 19.5378 13.8431 19.6488 13.8292C19.7631 13.8149 19.9312 13.799 20.1354 13.799V21.799ZM20.5556 21.7755C20.5579 21.7752 20.5775 21.7734 20.6009 21.7709C20.6257 21.7682 20.6638 21.764 20.7098 21.7579C20.8015 21.7458 20.9415 21.7243 21.1092 21.6852L19.2913 13.8944C19.4492 13.8576 19.5792 13.8378 19.661 13.827C19.735 13.8172 19.796 13.8116 19.785 13.8127L20.5556 21.7755ZM20.9981 21.7094C21.3389 21.64 21.8545 21.4943 22.4043 21.1559L18.2115 14.3427C18.6929 14.0464 19.136 13.9244 19.4025 13.8702L20.9981 21.7094ZM22.0968 21.327C21.9775 21.3867 21.8655 21.4352 21.7645 21.4747C21.664 21.5139 21.5751 21.544 21.5032 21.5665C21.4672 21.5778 21.435 21.5873 21.4074 21.5952C21.3799 21.603 21.3563 21.6095 21.3377 21.6144C21.3194 21.6193 21.3045 21.6231 21.2955 21.6254C21.2909 21.6266 21.2872 21.6275 21.2849 21.6281C21.2829 21.6286 21.2811 21.629 21.2814 21.6289C21.2814 21.6289 21.2814 21.6289 21.2814 21.6289C21.2815 21.6289 21.2815 21.6289 21.2815 21.6289C21.2815 21.6289 21.2816 21.6289 21.2817 21.6289C21.2818 21.6288 21.2821 21.6288 21.2823 21.6287C21.2829 21.6286 21.2839 21.6283 21.285 21.628C21.2873 21.6275 21.2911 21.6265 21.2958 21.6253C21.3049 21.623 21.3198 21.6192 21.3382 21.6143C21.3568 21.6093 21.3806 21.6028 21.4082 21.595C21.4358 21.5871 21.4681 21.5775 21.5042 21.5662C21.5763 21.5437 21.6653 21.5136 21.766 21.4742C21.8672 21.4347 21.9793 21.3861 22.0988 21.3263L18.5211 14.1709C18.6404 14.1113 18.7523 14.0628 18.8534 14.0233C18.9539 13.984 19.0427 13.9539 19.1147 13.9314C19.1506 13.9202 19.1829 13.9106 19.2104 13.9028C19.2379 13.8949 19.2616 13.8885 19.2801 13.8835C19.2984 13.8787 19.3133 13.8748 19.3223 13.8725C19.327 13.8714 19.3307 13.8704 19.3329 13.8699C19.335 13.8693 19.3367 13.8689 19.3364 13.869C19.3364 13.869 19.3364 13.869 19.3364 13.869C19.3364 13.869 19.3364 13.869 19.3364 13.869C19.3363 13.869 19.3363 13.869 19.3362 13.869C19.336 13.8691 19.3358 13.8691 19.3355 13.8692C19.3349 13.8694 19.334 13.8696 19.3328 13.8699C19.3305 13.8705 19.3267 13.8714 19.3221 13.8726C19.313 13.8749 19.298 13.8788 19.2796 13.8837C19.261 13.8886 19.2372 13.8951 19.2097 13.903C19.1821 13.9109 19.1497 13.9204 19.1137 13.9317C19.0416 13.9543 18.9526 13.9844 18.8519 14.0237C18.7507 14.0633 18.6386 14.1118 18.5191 14.1716L22.0968 21.327ZM22.4317 21.1395L23.2016 20.6577L18.958 13.876L18.1881 14.3578L22.4317 21.1395ZM17.0798 17.2669V17.5484H25.0798V17.2669H17.0798ZM17.0798 17.5484C17.0798 21.7824 19.1115 25.7928 22.526 28.2973L27.2575 21.8465C25.8978 20.8492 25.0798 19.2345 25.0798 17.5484H17.0798ZM22.5262 28.2974L26.102 30.9199L30.8332 24.4689L27.2573 21.8463L22.5262 28.2974ZM28.4676 23.6944H16.1983V31.6944H28.4676V23.6944ZM12.1983 27.6944V27.6954H20.1983V27.6944H12.1983Z" fill="#535353" mask="url(#path-1-inside-1_28_204)"/>
<mask id="path-3-inside-2_28_204" fill="white">
<path d="M11.8592 10.2884V8.76705C11.8592 7.70474 10.9948 6.84033 9.93212 6.84033C8.86981 6.84033 8.0054 7.70474 8.0054 8.76705V10.2884C8.0054 11.3507 8.86981 12.2151 9.93212 12.2151C10.9948 12.2151 11.8592 11.3507 11.8592 10.2884ZM11.2006 10.2884C11.2006 10.9878 10.6315 11.5565 9.93212 11.5565C9.23269 11.5565 8.664 10.9875 8.664 10.2884V8.76705C8.664 8.06762 9.23302 7.49893 9.93212 7.49893C10.6312 7.49893 11.2006 8.06795 11.2006 8.76705V10.2884Z"/>
</mask>
<path d="M11.8592 10.2884V8.76705C11.8592 7.70474 10.9948 6.84033 9.93212 6.84033C8.86981 6.84033 8.0054 7.70474 8.0054 8.76705V10.2884C8.0054 11.3507 8.86981 12.2151 9.93212 12.2151C10.9948 12.2151 11.8592 11.3507 11.8592 10.2884ZM11.2006 10.2884C11.2006 10.9878 10.6315 11.5565 9.93212 11.5565C9.23269 11.5565 8.664 10.9875 8.664 10.2884V8.76705C8.664 8.06762 9.23302 7.49893 9.93212 7.49893C10.6312 7.49893 11.2006 8.06795 11.2006 8.76705V10.2884Z" fill="#535353"/>
<path d="M15.8592 10.2884V8.76705H7.85916V10.2884H15.8592ZM15.8592 8.76705C15.8592 5.49515 13.2035 2.84033 9.93212 2.84033V10.8403C8.78606 10.8403 7.85916 9.91432 7.85916 8.76705H15.8592ZM9.93212 2.84033C6.66067 2.84033 4.0054 5.4956 4.0054 8.76705H12.0054C12.0054 9.91387 11.0789 10.8403 9.93212 10.8403V2.84033ZM4.0054 8.76705V10.2884H12.0054V8.76705H4.0054ZM4.0054 10.2884C4.0054 13.5598 6.66066 16.2151 9.93212 16.2151V8.21512C11.0789 8.21512 12.0054 9.14157 12.0054 10.2884H4.0054ZM9.93212 16.2151C13.2035 16.2151 15.8592 13.5603 15.8592 10.2884H7.85916C7.85916 9.14113 8.78606 8.21512 9.93212 8.21512V16.2151ZM7.20057 10.2884C7.20057 8.77734 8.42376 7.55652 9.93212 7.55652V15.5565C12.8393 15.5565 15.2006 13.1983 15.2006 10.2884H7.20057ZM9.93212 7.55652C11.4425 7.55652 12.664 8.77904 12.664 10.2884H4.664C4.664 13.196 7.02287 15.5565 9.93212 15.5565V7.55652ZM12.664 10.2884V8.76705H4.664V10.2884H12.664ZM12.664 8.76705C12.664 10.2774 11.4415 11.4989 9.93212 11.4989V3.49893C7.02456 3.49893 4.664 5.85781 4.664 8.76705H12.664ZM9.93212 11.4989C8.42343 11.4989 7.20057 10.2784 7.20057 8.76705H15.2006C15.2006 5.85746 12.839 3.49893 9.93212 3.49893V11.4989ZM7.20057 8.76705V10.2884H15.2006V8.76705H7.20057Z" fill="#535353" mask="url(#path-3-inside-2_28_204)"/>
<mask id="path-5-inside-3_28_204" fill="white">
<path d="M14.9904 6.83997C13.9281 6.83997 13.0637 7.70437 13.0637 8.76668V10.288C13.0637 11.3503 13.9281 12.2147 14.9908 12.2147C16.0531 12.2147 16.9175 11.3503 16.9175 10.288V8.76668C16.9175 7.70437 16.0531 6.83997 14.9904 6.83997ZM16.2589 10.2884C16.2589 10.9878 15.6899 11.5565 14.9908 11.5565C14.2913 11.5565 13.7226 10.9875 13.7226 10.2884V8.76701C13.7226 8.06758 14.2917 7.49889 14.9911 7.49889C15.6905 7.49889 16.2592 8.06791 16.2592 8.76701L16.2589 10.2884Z"/>
</mask>
<path d="M14.9904 6.83997C13.9281 6.83997 13.0637 7.70437 13.0637 8.76668V10.288C13.0637 11.3503 13.9281 12.2147 14.9908 12.2147C16.0531 12.2147 16.9175 11.3503 16.9175 10.288V8.76668C16.9175 7.70437 16.0531 6.83997 14.9904 6.83997ZM16.2589 10.2884C16.2589 10.9878 15.6899 11.5565 14.9908 11.5565C14.2913 11.5565 13.7226 10.9875 13.7226 10.2884V8.76701C13.7226 8.06758 14.2917 7.49889 14.9911 7.49889C15.6905 7.49889 16.2592 8.06791 16.2592 8.76701L16.2589 10.2884Z" fill="#535353"/>
<path d="M16.9175 8.76668H12.9175H16.9175ZM16.2589 10.2884L12.2589 10.2875V10.2884H16.2589ZM16.2592 8.76701L20.2592 8.76788V8.76701H16.2592ZM14.9904 2.83997C11.719 2.83997 9.06372 5.49523 9.06372 8.76668H17.0637C17.0637 9.91351 16.1373 10.84 14.9904 10.84V2.83997ZM9.06372 8.76668V10.288H17.0637V8.76668H9.06372ZM9.06372 10.288C9.06372 13.5599 11.7194 16.2147 14.9908 16.2147V8.21475C16.1368 8.21475 17.0637 9.14076 17.0637 10.288H9.06372ZM14.9908 16.2147C18.2622 16.2147 20.9175 13.5595 20.9175 10.288H12.9175C12.9175 9.1412 13.8439 8.21475 14.9908 8.21475V16.2147ZM20.9175 10.288V8.76668H12.9175V10.288H20.9175ZM20.9175 8.76668C20.9175 5.49478 18.2618 2.83997 14.9904 2.83997V10.84C13.8444 10.84 12.9175 9.91396 12.9175 8.76668H20.9175ZM12.2589 10.2884C12.2589 8.77797 13.4814 7.55649 14.9908 7.55649V15.5565C17.8983 15.5565 20.2589 13.1976 20.2589 10.2884H12.2589ZM14.9908 7.55649C16.5012 7.55649 17.7226 8.779 17.7226 10.2884H9.72264C9.72264 13.1959 12.0815 15.5565 14.9908 15.5565V7.55649ZM17.7226 10.2884V8.76701H9.72264V10.2884H17.7226ZM17.7226 8.76701C17.7226 10.2781 16.4995 11.4989 14.9911 11.4989V3.49889C12.0839 3.49889 9.72264 5.8571 9.72264 8.76701H17.7226ZM14.9911 11.4989C13.4807 11.4989 12.2592 10.2764 12.2592 8.76701H20.2592C20.2592 5.85945 17.9003 3.49889 14.9911 3.49889V11.4989ZM12.2592 8.76615L12.2589 10.2875L20.2589 10.2892L20.2592 8.76788L12.2592 8.76615Z" fill="#535353" mask="url(#path-5-inside-3_28_204)"/>
<mask id="path-7-inside-4_28_204" fill="white">
<path d="M12.4614 13.5844C11.3991 13.5844 10.5347 14.4488 10.5347 15.5111V19.9829C10.5347 21.0456 11.3991 21.91 12.4614 21.91C13.5241 21.91 14.3885 21.0456 14.3885 19.9829V15.5111C14.3885 14.4488 13.5241 13.5844 12.4614 13.5844ZM13.7299 19.9832C13.7299 20.6827 13.1609 21.2517 12.4614 21.2517C11.762 21.2517 11.1933 20.6827 11.1933 19.9832V15.5114C11.1933 14.812 11.7623 14.2433 12.4614 14.2433C13.1605 14.2433 13.7299 14.8123 13.7299 15.5114V19.9832Z"/>
</mask>
<path d="M12.4614 13.5844C11.3991 13.5844 10.5347 14.4488 10.5347 15.5111V19.9829C10.5347 21.0456 11.3991 21.91 12.4614 21.91C13.5241 21.91 14.3885 21.0456 14.3885 19.9829V15.5111C14.3885 14.4488 13.5241 13.5844 12.4614 13.5844ZM13.7299 19.9832C13.7299 20.6827 13.1609 21.2517 12.4614 21.2517C11.762 21.2517 11.1933 20.6827 11.1933 19.9832V15.5114C11.1933 14.812 11.7623 14.2433 12.4614 14.2433C13.1605 14.2433 13.7299 14.8123 13.7299 15.5114V19.9832Z" fill="#535353"/>
<path d="M12.4614 9.58435C9.18999 9.58435 6.53473 12.2396 6.53473 15.5111H14.5347C14.5347 16.6579 13.6083 17.5844 12.4614 17.5844V9.58435ZM6.53473 15.5111V19.9829H14.5347V15.5111H6.53473ZM6.53473 19.9829C6.53473 23.2542 9.18954 25.91 12.4614 25.91V17.91C13.6087 17.91 14.5347 18.8369 14.5347 19.9829H6.53473ZM12.4614 25.91C15.7332 25.91 18.3885 23.2547 18.3885 19.9829H10.3885C10.3885 18.8364 11.3149 17.91 12.4614 17.91V25.91ZM18.3885 19.9829V15.5111H10.3885V19.9829H18.3885ZM18.3885 15.5111C18.3885 12.2392 15.7328 9.58435 12.4614 9.58435V17.5844C11.3154 17.5844 10.3885 16.6583 10.3885 15.5111H18.3885ZM9.7299 19.9832C9.7299 18.4735 10.9517 17.2517 12.4614 17.2517V25.2517C15.37 25.2517 17.7299 22.8918 17.7299 19.9832H9.7299ZM12.4614 17.2517C13.9725 17.2517 15.1933 18.4749 15.1933 19.9832H7.19332C7.19332 22.8904 9.55152 25.2517 12.4614 25.2517V17.2517ZM15.1933 19.9832V15.5114H7.19332V19.9832H15.1933ZM15.1933 15.5114C15.1933 17.0218 13.9708 18.2433 12.4614 18.2433V10.2433C9.55388 10.2433 7.19332 12.6022 7.19332 15.5114H15.1933ZM12.4614 18.2433C10.9528 18.2433 9.7299 17.0228 9.7299 15.5114H17.7299C17.7299 12.6018 15.3683 10.2433 12.4614 10.2433V18.2433ZM9.7299 15.5114V19.9832H17.7299V15.5114H9.7299Z" fill="#535353" mask="url(#path-7-inside-4_28_204)"/>
</svg>
