<svg width="52" height="23" viewBox="0 0 52 23" fill="none" xmlns="http://www.w3.org/2000/svg">
<path d="M7.31 9.94H16.55V15.28H7.31V9.94ZM7.79 22H0.71V0.999999H17.78V6.34H7.79V22ZM20.0166 22V0.999999H27.0966V22H20.0166ZM41.3949 22.48C39.6949 22.48 38.1249 22.22 36.6849 21.7C35.2649 21.16 34.0249 20.4 32.9649 19.42C31.9249 18.44 31.1149 17.28 30.5349 15.94C29.9549 14.6 29.6649 13.12 29.6649 11.5C29.6649 9.88 29.9549 8.4 30.5349 7.06C31.1149 5.72 31.9349 4.56 32.9949 3.58C34.0549 2.6 35.3049 1.85 36.7449 1.33C38.2049 0.789999 39.8049 0.519999 41.5449 0.519999C43.6249 0.519999 45.4749 0.869999 47.0949 1.57C48.7349 2.27 50.0849 3.27 51.1449 4.57L46.6149 8.56C45.9549 7.8 45.2349 7.23 44.4549 6.85C43.6949 6.45 42.8449 6.25 41.9049 6.25C41.1249 6.25 40.4149 6.37 39.7749 6.61C39.1549 6.85 38.6249 7.2 38.1849 7.66C37.7449 8.12 37.4049 8.67 37.1649 9.31C36.9249 9.95 36.8049 10.68 36.8049 11.5C36.8049 12.28 36.9249 13 37.1649 13.66C37.4049 14.3 37.7449 14.85 38.1849 15.31C38.6249 15.77 39.1449 16.13 39.7449 16.39C40.3649 16.63 41.0549 16.75 41.8149 16.75C42.6149 16.75 43.3949 16.62 44.1549 16.36C44.9149 16.08 45.7249 15.61 46.5849 14.95L50.5449 19.81C49.2649 20.67 47.8049 21.33 46.1649 21.79C44.5249 22.25 42.9349 22.48 41.3949 22.48ZM44.3949 18.91V10.93H50.5449V19.81L44.3949 18.91Z" fill="white"/>
</svg>
