<svg width="22" height="22" viewBox="0 0 22 22" fill="none" xmlns="http://www.w3.org/2000/svg">
<g clip-path="url(#clip0_13_75)">
<path d="M21.5714 20.2056L15.7867 14.4206C17.038 12.8647 17.719 10.9451 17.719 8.91982C17.719 6.56945 16.8038 4.35987 15.1417 2.69773C13.4798 1.03608 11.2704 0.12085 8.92006 0.12085C6.56969 0.12085 4.36011 1.03608 2.69797 2.69797C1.03608 4.35987 0.12085 6.56969 0.12085 8.92006C0.12085 11.2704 1.03608 13.48 2.69797 15.1419C4.35987 16.804 6.56969 17.7193 8.92006 17.7193C10.9454 17.7193 12.8649 17.0383 14.4208 15.7869L20.2056 21.5717C20.3939 21.76 20.6415 21.8544 20.8885 21.8544C21.1355 21.8544 21.3831 21.76 21.5714 21.5714C21.9489 21.1945 21.9489 20.5825 21.5714 20.2056ZM4.06405 13.7758C2.76704 12.4788 2.05272 10.7544 2.05272 8.92006C2.05272 7.08574 2.76704 5.3613 4.06405 4.06429C5.36106 2.76728 7.08574 2.05272 8.92006 2.05272C10.7544 2.05272 12.4788 2.76704 13.7758 4.06405C15.0728 5.36106 15.7871 7.08574 15.7871 8.91982C15.7871 10.7541 15.0728 12.4786 13.7758 13.7756C12.4788 15.0726 10.7544 15.7869 8.92006 15.7869C7.08574 15.7871 5.36106 15.0728 4.06405 13.7758Z" fill="#514B4B"/>
</g>
<defs>
<clipPath id="clip0_13_75">
<rect width="22" height="22" fill="white"/>
</clipPath>
</defs>
</svg>
