<svg width="22" height="22" viewBox="0 0 22 22" fill="none" xmlns="http://www.w3.org/2000/svg">
<path d="M10.9877 21.8545C7.19952 21.8545 3.74364 19.7721 1.96849 16.4199L1.78906 16.0808L1.96849 15.742C2.97837 13.8345 4.60332 12.2656 6.54341 11.3243C7.23961 10.9869 8.05027 10.9918 8.76869 11.3368C9.46392 11.6711 10.2106 11.8406 10.9874 11.8406C11.7645 11.8406 12.5112 11.6711 13.2062 11.3368C13.9246 10.9915 14.7355 10.9869 15.4315 11.3243C17.3718 12.2656 18.9968 13.8348 20.0064 15.742C20.1936 16.0955 20.0588 16.5338 19.705 16.7212C19.3508 16.9091 18.913 16.7736 18.7258 16.4199C17.8589 14.7828 16.4646 13.4361 14.7988 12.6281C14.5032 12.4844 14.1514 12.4904 13.8338 12.643C12.9415 13.0717 11.9838 13.2892 10.9877 13.2892C9.99156 13.2892 9.03408 13.0717 8.14107 12.6426C7.82352 12.4897 7.47143 12.4841 7.17585 12.6276C5.62673 13.3791 4.31209 14.5966 3.43816 16.0808C5.0095 18.7584 7.86747 20.4056 10.9877 20.4056C11.6107 20.4056 12.233 20.3399 12.837 20.2099C13.2262 20.1252 13.6133 20.3746 13.6974 20.7661C13.7817 21.157 13.5324 21.5425 13.1412 21.6265C12.4376 21.7779 11.7131 21.8545 10.9877 21.8545Z" fill="#514B4B"/>
<path d="M10.9877 10.6851C8.07513 10.6851 5.70569 8.31538 5.70569 5.40284C5.70569 2.49029 8.07513 0.12085 10.9877 0.12085C13.9002 0.12085 16.2697 2.49029 16.2697 5.40284C16.2697 8.31538 13.9002 10.6851 10.9877 10.6851ZM10.9877 1.56976C8.8742 1.56976 7.15459 3.28937 7.15459 5.40284C7.15459 7.51655 8.8742 9.23616 10.9877 9.23616C13.1011 9.23616 14.8208 7.51655 14.8208 5.40284C14.8208 3.28937 13.1011 1.56976 10.9877 1.56976Z" fill="#514B4B"/>
<path d="M20.0356 19.5604C20.045 19.5379 20.0501 19.5142 20.0571 19.491C20.0636 19.4691 20.0721 19.4481 20.0766 19.4254C20.0858 19.3792 20.0907 19.3324 20.0907 19.2855C20.0907 19.2848 20.0909 19.2843 20.0909 19.2839C20.0909 19.2363 20.0858 19.1887 20.0766 19.1419C20.0723 19.1204 20.0643 19.1006 20.0583 19.0798C20.0511 19.0554 20.0455 19.0305 20.0356 19.0069C20.0252 18.9818 20.011 18.9591 19.9979 18.9354C19.9883 18.9178 19.9805 18.8994 19.9692 18.8825C19.9424 18.8424 19.912 18.805 19.8779 18.7709L18.0325 16.9255C17.7495 16.6425 17.2911 16.6425 17.0081 16.9255C16.7251 17.2083 16.7251 17.6671 17.0081 17.9499L17.6176 18.5594H15.7811C14.955 18.5594 14.2832 17.8876 14.2832 17.0615V16.0446C14.2832 15.6444 13.9589 15.3201 13.5587 15.3201C13.1586 15.3201 12.8343 15.6444 12.8343 16.0446V17.0615C12.8343 18.6864 14.1564 20.0083 15.7811 20.0083H17.6179L17.0081 20.6181C16.7251 20.9011 16.7251 21.3597 17.0081 21.6424C17.1496 21.7837 17.3348 21.8545 17.5203 21.8545C17.7058 21.8545 17.8912 21.7837 18.0325 21.6422L19.8779 19.7965C19.912 19.7625 19.9426 19.725 19.9694 19.6847C19.9801 19.6688 19.9871 19.6516 19.9965 19.6352C20.01 19.6106 20.0247 19.5867 20.0356 19.5604Z" fill="#514B4B"/>
</svg>
