<svg width="24" height="24" viewBox="0 0 24 24" fill="none" xmlns="http://www.w3.org/2000/svg">
<path d="M12 5.875C8.62305 5.875 5.875 8.62305 5.875 12C5.875 15.3769 8.62305 18.125 12 18.125C15.377 18.125 18.125 15.3769 18.125 12C18.125 8.62305 15.377 5.875 12 5.875ZM12 4.125C12.4831 4.125 12.875 3.7342 12.875 3.25V1.5C12.875 1.01695 12.4831 0.625 12 0.625C11.5158 0.625 11.125 1.01695 11.125 1.5V3.25C11.125 3.7342 11.5158 4.125 12 4.125ZM12 19.875C11.5158 19.875 11.125 20.2669 11.125 20.75V22.5C11.125 22.9842 11.5158 23.375 12 23.375C12.4831 23.375 12.875 22.9842 12.875 22.5V20.75C12.875 20.2669 12.4831 19.875 12 19.875ZM18.8041 6.43101L20.0414 5.1937C20.3832 4.85191 20.3832 4.2982 20.0414 3.9564C19.6995 3.6146 19.1459 3.6146 18.8041 3.9564L17.5667 5.1937C17.2249 5.5355 17.2249 6.08921 17.5667 6.43101C17.9085 6.77275 18.4622 6.77275 18.8041 6.43101ZM5.19365 17.5701L3.95645 18.8074C3.61455 19.1492 3.61455 19.7031 3.95645 20.0448C4.2982 20.3865 4.85185 20.3865 5.19365 20.0448L6.43095 18.8074C6.7728 18.4634 6.7728 17.9119 6.43095 17.5701C6.08921 17.2283 5.5355 17.226 5.19365 17.5701ZM4.125 12C4.125 11.5169 3.73305 11.125 3.25 11.125H1.5C1.0158 11.125 0.625 11.5169 0.625 12C0.625 12.4842 1.0158 12.875 1.5 12.875H3.25C3.73305 12.875 4.125 12.4842 4.125 12ZM22.5 11.125H20.75C20.2658 11.125 19.875 11.5169 19.875 12C19.875 12.4842 20.2658 12.875 20.75 12.875H22.5C22.9831 12.875 23.375 12.4842 23.375 12C23.375 11.5169 22.9831 11.125 22.5 11.125ZM5.19255 6.43101C5.5343 6.77281 6.08806 6.77281 6.42986 6.43101C6.7716 6.08921 6.7716 5.5355 6.42986 5.1937L5.19255 3.9564C4.85076 3.6146 4.29699 3.6146 3.95525 3.9564C3.61345 4.2982 3.61345 4.85191 3.95525 5.1937L5.19255 6.43101ZM18.8064 17.5678C18.4622 17.226 17.9108 17.226 17.569 17.5678C17.2273 17.9095 17.2249 18.4634 17.569 18.8051L18.8064 20.0425C19.1481 20.3841 19.7018 20.3841 20.0437 20.0425C20.3854 19.7007 20.3854 19.1468 20.0437 18.8051L18.8064 17.5678Z" fill="white"/>
</svg>
