<svg width="20" height="20" viewBox="0 0 20 20" fill="none" xmlns="http://www.w3.org/2000/svg">
<path d="M12.2461 9.76496C12.2461 9.76497 12.2461 9.76497 12.2461 9.76498C12.2461 9.76499 12.2461 9.765 12.2461 9.765C12.246 9.76506 12.2459 9.76512 12.2458 9.76517C12.2336 9.77278 12.2216 9.78048 12.2096 9.78828C12.1136 9.82434 12.0024 9.78963 11.9461 9.69946C11.8818 9.59671 11.9128 9.46126 12.0157 9.39694L12.0158 9.39693L12.1322 9.58297L12.1324 9.58326L12.2461 9.76496ZM12.2461 9.76496C12.2465 9.76475 12.2468 9.76455 12.2471 9.76434L12.492 9.61105V9.35885V9.35768V9.09882L12.0172 9.39602L12.1329 9.58252L12.1331 9.58281L12.2461 9.76496Z" fill="black" stroke="black" stroke-width="4"/>
<mask id="path-2-inside-1_16_42" fill="white">
<path d="M7.90609 6.85894V5.8447C7.90609 5.1365 7.32982 4.56023 6.62139 4.56023C5.91318 4.56023 5.33691 5.1365 5.33691 5.8447V6.85894C5.33691 7.56715 5.91318 8.14342 6.62139 8.14342C7.32982 8.14342 7.90609 7.56715 7.90609 6.85894ZM7.46703 6.85894C7.46703 7.32522 7.08768 7.70435 6.62139 7.70435C6.15511 7.70435 5.77598 7.325 5.77598 6.85894V5.8447C5.77598 5.37842 6.15533 4.99929 6.62139 4.99929C7.08746 4.99929 7.46703 5.37864 7.46703 5.8447V6.85894Z"/>
</mask>
<path d="M7.90609 6.85894V5.8447C7.90609 5.1365 7.32982 4.56023 6.62139 4.56023C5.91318 4.56023 5.33691 5.1365 5.33691 5.8447V6.85894C5.33691 7.56715 5.91318 8.14342 6.62139 8.14342C7.32982 8.14342 7.90609 7.56715 7.90609 6.85894ZM7.46703 6.85894C7.46703 7.32522 7.08768 7.70435 6.62139 7.70435C6.15511 7.70435 5.77598 7.325 5.77598 6.85894V5.8447C5.77598 5.37842 6.15533 4.99929 6.62139 4.99929C7.08746 4.99929 7.46703 5.37864 7.46703 5.8447V6.85894Z" fill="black"/>
<path d="M11.9061 6.85894V5.8447H3.90609V6.85894H11.9061ZM11.9061 5.8447C11.9061 2.92691 9.53851 0.560226 6.62139 0.560226V8.56023C5.12113 8.56023 3.90609 7.34608 3.90609 5.8447H11.9061ZM6.62139 0.560226C3.70404 0.560226 1.33691 2.92736 1.33691 5.8447H9.33691C9.33691 7.34563 8.12232 8.56023 6.62139 8.56023V0.560226ZM1.33691 5.8447V6.85894H9.33691V5.8447H1.33691ZM1.33691 6.85894C1.33691 9.77628 3.70404 12.1434 6.62139 12.1434V4.14342C8.12232 4.14342 9.33691 5.35801 9.33691 6.85894H1.33691ZM6.62139 12.1434C9.53851 12.1434 11.9061 9.77673 11.9061 6.85894H3.90609C3.90609 5.35756 5.12112 4.14342 6.62139 4.14342V12.1434ZM3.46703 6.85894C3.46703 5.11473 4.87989 3.70435 6.62139 3.70435V11.7044C9.29546 11.7044 11.467 9.53571 11.467 6.85894H3.46703ZM6.62139 3.70435C8.36492 3.70435 9.77598 5.11654 9.77598 6.85894H1.77598C1.77598 9.53346 3.94529 11.7044 6.62139 11.7044V3.70435ZM9.77598 6.85894V5.8447H1.77598V6.85894H9.77598ZM9.77598 5.8447C9.77598 7.58823 8.36379 8.99929 6.62139 8.99929V0.999289C3.94686 0.999289 1.77598 3.1686 1.77598 5.8447H9.77598ZM6.62139 8.99929C4.87967 8.99929 3.46703 7.58913 3.46703 5.8447H11.467C11.467 3.16815 9.29524 0.999289 6.62139 0.999289V8.99929ZM3.46703 5.8447V6.85894H11.467V5.8447H3.46703Z" fill="black" mask="url(#path-2-inside-1_16_42)"/>
<mask id="path-4-inside-2_16_42" fill="white">
<path d="M9.99364 4.56001C9.28544 4.56001 8.70917 5.13628 8.70917 5.84449V6.85872C8.70917 7.56693 9.28544 8.1432 9.99386 8.1432C10.7021 8.1432 11.2783 7.56693 11.2783 6.85872V5.84449C11.2783 5.13628 10.7021 4.56001 9.99364 4.56001ZM10.8393 6.85894C10.8393 7.32523 10.4599 7.70436 9.99386 7.70436C9.52758 7.70436 9.14845 7.32501 9.14845 6.85894V5.84471C9.14845 5.37843 9.5278 4.99929 9.99408 4.99929C10.4604 4.99929 10.8395 5.37864 10.8395 5.84471L10.8393 6.85894Z"/>
</mask>
<path d="M9.99364 4.56001C9.28544 4.56001 8.70917 5.13628 8.70917 5.84449V6.85872C8.70917 7.56693 9.28544 8.1432 9.99386 8.1432C10.7021 8.1432 11.2783 7.56693 11.2783 6.85872V5.84449C11.2783 5.13628 10.7021 4.56001 9.99364 4.56001ZM10.8393 6.85894C10.8393 7.32523 10.4599 7.70436 9.99386 7.70436C9.52758 7.70436 9.14845 7.32501 9.14845 6.85894V5.84471C9.14845 5.37843 9.5278 4.99929 9.99408 4.99929C10.4604 4.99929 10.8395 5.37864 10.8395 5.84471L10.8393 6.85894Z" fill="black"/>
<path d="M11.2783 5.84449H7.27834H11.2783ZM10.8393 6.85894L6.83928 6.85808V6.85894H10.8393ZM10.8395 5.84471L14.8395 5.84557V5.84471H10.8395ZM9.99364 0.560013C7.0763 0.560013 4.70917 2.92715 4.70917 5.84449H12.7092C12.7092 7.34542 11.4946 8.56001 9.99364 8.56001V0.560013ZM4.70917 5.84449V6.85872H12.7092V5.84449H4.70917ZM4.70917 6.85872C4.70917 9.77652 7.07674 12.1432 9.99386 12.1432V4.1432C11.4941 4.1432 12.7092 5.35735 12.7092 6.85872H4.70917ZM9.99386 12.1432C12.9112 12.1432 15.2783 9.77607 15.2783 6.85872H7.27834C7.27834 5.35779 8.49294 4.1432 9.99386 4.1432V12.1432ZM15.2783 6.85872V5.84449H7.27834V6.85872H15.2783ZM15.2783 5.84449C15.2783 2.9267 12.9108 0.560013 9.99364 0.560013V8.56001C8.49338 8.56001 7.27834 7.34587 7.27834 5.84449H15.2783ZM6.83928 6.85894C6.83928 5.11541 8.25147 3.70436 9.99386 3.70436V11.7044C12.6684 11.7044 14.8393 9.53504 14.8393 6.85894H6.83928ZM9.99386 3.70436C11.7374 3.70436 13.1484 5.11655 13.1484 6.85894H5.14845C5.14845 9.53347 7.31776 11.7044 9.99386 11.7044V3.70436ZM13.1484 6.85894V5.84471H5.14845V6.85894H13.1484ZM13.1484 5.84471C13.1484 7.58891 11.7356 8.99929 9.99408 8.99929V0.999295C7.32001 0.999295 5.14845 3.16794 5.14845 5.84471H13.1484ZM9.99408 8.99929C8.25056 8.99929 6.8395 7.58711 6.8395 5.84471H14.8395C14.8395 3.17018 12.6702 0.999295 9.99408 0.999295V8.99929ZM6.8395 5.84384L6.83928 6.85808L14.8393 6.85981L14.8395 5.84557L6.8395 5.84384Z" fill="black" mask="url(#path-4-inside-2_16_42)"/>
<mask id="path-6-inside-3_16_42" fill="white">
<path d="M8.30761 9.05623C7.5994 9.05623 7.02313 9.6325 7.02313 10.3407V13.3219C7.02313 14.0304 7.5994 14.6066 8.30761 14.6066C9.01604 14.6066 9.59231 14.0304 9.59231 13.3219V10.3407C9.59231 9.6325 9.01604 9.05623 8.30761 9.05623ZM9.15324 13.3222C9.15324 13.7884 8.77389 14.1678 8.30761 14.1678C7.84133 14.1678 7.4622 13.7884 7.4622 13.3222V10.3409C7.4622 9.87464 7.84154 9.49551 8.30761 9.49551C8.77367 9.49551 9.15324 9.87486 9.15324 10.3409V13.3222Z"/>
</mask>
<path d="M8.30761 9.05623C7.5994 9.05623 7.02313 9.6325 7.02313 10.3407V13.3219C7.02313 14.0304 7.5994 14.6066 8.30761 14.6066C9.01604 14.6066 9.59231 14.0304 9.59231 13.3219V10.3407C9.59231 9.6325 9.01604 9.05623 8.30761 9.05623ZM9.15324 13.3222C9.15324 13.7884 8.77389 14.1678 8.30761 14.1678C7.84133 14.1678 7.4622 13.7884 7.4622 13.3222V10.3409C7.4622 9.87464 7.84154 9.49551 8.30761 9.49551C8.77367 9.49551 9.15324 9.87486 9.15324 10.3409V13.3222Z" fill="black"/>
<path d="M8.30761 5.05623C5.39026 5.05623 3.02313 7.42336 3.02313 10.3407H11.0231C11.0231 11.8416 9.80854 13.0562 8.30761 13.0562V5.05623ZM3.02313 10.3407V13.3219H11.0231V10.3407H3.02313ZM3.02313 13.3219C3.02313 16.2391 5.38981 18.6066 8.30761 18.6066V10.6066C9.80899 10.6066 11.0231 11.8217 11.0231 13.3219H3.02313ZM8.30761 18.6066C11.2252 18.6066 13.5923 16.2395 13.5923 13.3219H5.59231C5.59231 11.8212 6.80689 10.6066 8.30761 10.6066V18.6066ZM13.5923 13.3219V10.3407H5.59231V13.3219H13.5923ZM13.5923 10.3407C13.5923 7.42292 11.2247 5.05623 8.30761 5.05623V13.0562C6.80734 13.0562 5.59231 11.8421 5.59231 10.3407H13.5923ZM5.15324 13.3222C5.15324 11.5793 6.56475 10.1678 8.30761 10.1678V18.1678C10.983 18.1678 13.1532 15.9976 13.1532 13.3222H5.15324ZM8.30761 10.1678C10.0518 10.1678 11.4622 11.5807 11.4622 13.3222H3.4622C3.4622 15.9962 5.63082 18.1678 8.30761 18.1678V10.1678ZM11.4622 13.3222V10.3409H3.4622V13.3222H11.4622ZM11.4622 10.3409C11.4622 12.0845 10.05 13.4955 8.30761 13.4955V5.49551C5.63308 5.49551 3.4622 7.66483 3.4622 10.3409H11.4622ZM8.30761 13.4955C6.56589 13.4955 5.15324 12.0854 5.15324 10.3409H13.1532C13.1532 7.66437 10.9815 5.49551 8.30761 5.49551V13.4955ZM5.15324 10.3409V13.3222H13.1532V10.3409H5.15324Z" fill="black" mask="url(#path-6-inside-3_16_42)"/>
</svg>
